<svg xmlns="http://www.w3.org/2000/svg" xmlns:xlink="http://www.w3.org/1999/xlink" xmlns:lucid="lucid" width="1142" height="2022"><g transform="translate(1161 -139)" lucid:page-tab-id="0_0"><path d="M-1500 0H0v2500h-1500z" fill="#fff"/><path d="M-1120 186a6 6 0 0 1 6-6h143a6 6 0 0 1 6 6v8a14.48 14.48 0 0 1-4.24 10.24l-1.52 1.52A14.48 14.48 0 0 1-981 210h-133a6 6 0 0 1-6-6z" fill="#edf5ff"/><path d="M-965 180v20l-10 10h-145" stroke="#000" stroke-width="2" fill="none"/><path d="M-1120 186a6 6 0 0 1 6-6h388a6 6 0 0 1 6 6v148a6 6 0 0 1-6 6h-388a6 6 0 0 1-6-6z" stroke="#000" stroke-width="2" fill="none"/><use xlink:href="#a" transform="matrix(1,0,0,1,-1112,180) translate(0 23.08376736111111)"/><use xlink:href="#b" transform="matrix(1,0,0,1,-1112,180) translate(80.30598958333334 23.08376736111111)"/><path d="M-1120 426a6 6 0 0 1 6-6h213a6 6 0 0 1 6 6v8a14.48 14.48 0 0 1-4.24 10.24l-1.52 1.52A14.48 14.48 0 0 1-911 450h-203a6 6 0 0 1-6-6z" fill="#edf5ff"/><path d="M-895 420v20l-10 10h-215" stroke="#000" stroke-width="2" fill="none"/><path d="M-1120 426a6 6 0 0 1 6-6h608a6 6 0 0 1 6 6v428a6 6 0 0 1-6 6h-608a6 6 0 0 1-6-6z" stroke="#000" stroke-width="2" fill="none"/><use xlink:href="#c" transform="matrix(1,0,0,1,-1112,420) translate(0 23.08376736111111)"/><use xlink:href="#d" transform="matrix(1,0,0,1,-1112,420) translate(90.18012152777777 23.08376736111111)"/><use xlink:href="#e" transform="matrix(1,0,0,1,-1112,420) translate(149.609375 23.08376736111111)"/><path d="M-1120 946a6 6 0 0 1 6-6h138a6 6 0 0 1 6 6v8a14.48 14.48 0 0 1-4.24 10.24l-1.52 1.52A14.48 14.48 0 0 1-986 970h-128a6 6 0 0 1-6-6z" fill="#edf5ff"/><path d="M-970 940v20l-10 10h-140" stroke="#000" stroke-width="2" fill="none"/><path d="M-1120 946a6 6 0 0 1 6-6h388a6 6 0 0 1 6 6v288a6 6 0 0 1-6 6h-388a6 6 0 0 1-6-6z" stroke="#000" stroke-width="2" fill="none"/><use xlink:href="#f" transform="matrix(1,0,0,1,-1112,940) translate(0 23.08376736111111)"/><use xlink:href="#b" transform="matrix(1,0,0,1,-1112,940) translate(72.98177083333333 23.08376736111111)"/><path d="M-1120 1326a6 6 0 0 1 6-6h123a6 6 0 0 1 6 6v8a14.48 14.48 0 0 1-4.24 10.24l-1.52 1.52A14.48 14.48 0 0 1-1001 1350h-113a6 6 0 0 1-6-6z" fill="#edf5ff"/><path d="M-985 1320v20l-10 10h-125" stroke="#000" stroke-width="2" fill="none"/><path d="M-1120 1326a6 6 0 0 1 6-6H-66a6 6 0 0 1 6 6v248a6 6 0 0 1-6 6h-1048a6 6 0 0 1-6-6z" stroke="#000" stroke-width="2" fill="none"/><use xlink:href="#g" transform="matrix(1,0,0,1,-1112,1320) translate(0 23.08376736111111)"/><use xlink:href="#b" transform="matrix(1,0,0,1,-1112,1320) translate(62.31553819444444 23.08376736111111)"/><path d="M-1120 1666a6 6 0 0 1 6-6h273a6 6 0 0 1 6 6v8a14.48 14.48 0 0 1-4.24 10.24l-1.52 1.52A14.48 14.48 0 0 1-851 1690h-263a6 6 0 0 1-6-6z" fill="#edf5ff"/><path d="M-835 1660v20l-10 10h-275" stroke="#000" stroke-width="2" fill="none"/><path d="M-1120 1666a6 6 0 0 1 6-6h868a6 6 0 0 1 6 6v448a6 6 0 0 1-6 6h-868a6 6 0 0 1-6-6z" stroke="#000" stroke-width="2" fill="none"/><use xlink:href="#h" transform="matrix(1,0,0,1,-1112,1660) translate(0 23.08376736111111)"/><use xlink:href="#i" transform="matrix(1,0,0,1,-1112,1660) translate(98.84982638888889 23.08376736111111)"/><use xlink:href="#b" transform="matrix(1,0,0,1,-1112,1660) translate(207.94270833333331 23.08376736111111)"/><path d="M-1060 280.4c0 11.05-8.95 20-20 20s-20-8.95-20-20 8.95-20 20-20 20 8.95 20 20z" stroke="#000" stroke-width="2"/><path d="M-983 241c-8.84 0-16 7.16-16 16v48c0 8.84 7.16 16 16 16h128c8.84 0 16-7.16 16-16v-48c0-8.84-7.16-16-16-16z" stroke="#000" stroke-width="2" fill="#fff"/><use xlink:href="#j" transform="matrix(1,0,0,1,-990.9993762921772,249) translate(9.445746527777771 40.083767361111114)"/><path d="M-1016.38 280.52v.96l-8.46-.02v-.94zm-42.12.36v-.95h6.14v.94z" stroke="#3a414a" stroke-width=".05" fill="#3a414a"/><path d="M-1058.5 280.88h-.55l.05-.44-.02-.5h.53z" fill="#3a414a"/><path stroke="#3a414a" stroke-width=".05" fill="#3a414a"/><path d="M-1001.62 281l-14.26 4.63v-9.26z" fill="#3a414a"/><path d="M-1000.08 281l-16.28 5.3v-10.6zm-15.33 3.98l12.25-3.98-12.26-3.98z" stroke="#3a414a" stroke-width=".05" fill="#3a414a"/><use xlink:href="#k" transform="matrix(1,0,0,1,-1052.3608373697834,269.6447916666667) translate(0 17.22222222222222)"/><path d="M-738 281c0 11.05-8.95 20-20 20-11.04 0-20-8.95-20-20s8.96-20 20-20c11.05 0 20 8.95 20 20z" stroke="#000" stroke-width="2" fill="#fff"/><path d="M-746 281c0 6.63-5.37 12-12 12s-12-5.37-12-12 5.37-12 12-12 12 5.37 12 12z" stroke="#000" stroke-width="2"/><path d="M-932.82 210.47h-3.56l-.88.07-.85.2-.8.34-.75.45-.65.56-.57.65-.45.74-.33.8-.2.84-.07.88v23.48h-.95v-23.52l.07-1 .24-.98.4-.94.52-.87.66-.78.77-.66.86-.53.94-.4 1-.23.98-.07h3.6zm36.43-.87l1 .24.94.4.87.52.78.66.66.77.53.86.4.94.23 1 .08.98v7.64h-.95v-7.6l-.07-.88-.2-.85-.34-.8-.45-.75-.56-.66-.65-.57-.74-.45-.8-.33-.83-.2-.9-.08h-3.55v-.94h3.6z" stroke="#3a414a" stroke-width=".05" fill="#3a414a"/><path d="M-941.92 240h-.95v-.5h.95z" fill="#3a414a"/><path stroke="#3a414a" stroke-width=".05" fill="#3a414a"/><path d="M-891.4 238.38l-4.63-14.26h9.27z" fill="#3a414a"/><path d="M-891.4 239.92l-5.3-16.28h10.6zm-3.98-15.33l3.98 12.25 3.98-12.26z" stroke="#3a414a" stroke-width=".05" fill="#3a414a"/><use xlink:href="#l" transform="matrix(1,0,0,1,-932.8238554588438,199.24479166666666) translate(0 17.22222222222222)"/><path d="M-837.5 281h42.12" stroke="#3a414a" fill="none"/><path d="M-837.5 281.48h-.5v-.96h.5z" stroke="#3a414a" stroke-width=".05" fill="#3a414a"/><path d="M-780.62 281l-14.26 4.63v-9.26z" stroke="#3a414a" fill="#3a414a"/><path d="M-1052 660c0 11.05-8.95 20-20 20s-20-8.95-20-20 8.95-20 20-20 20 8.95 20 20z" stroke="#000" stroke-width="2"/><path d="M-1084 480c-8.84 0-16 7.16-16 16v48c0 8.84 7.16 16 16 16h128c8.84 0 16-7.16 16-16v-48c0-8.84-7.16-16-16-16z" stroke="#000" stroke-width="2" fill="#fff"/><use xlink:href="#m" transform="matrix(1,0,0,1,-1092,488) translate(12.228949652777779 40.083767361111114)"/><path d="M-1071.53 638.5h-.94v-27.75h.94zm0-49.26h-.94v-11.86h.94z" stroke="#3a414a" stroke-width=".05" fill="#3a414a"/><path d="M-1071.53 639.05l-.42-.05-.52.02v-.53h.94z" fill="#3a414a"/><path stroke="#3a414a" stroke-width=".05" fill="#3a414a"/><path d="M-1067.37 576.88h-9.27l4.64-14.26z" fill="#3a414a"/><path d="M-1066.7 577.36h-10.6l5.3-16.28zm-9.28-.95h7.96l-3.98-12.25z" stroke="#3a414a" stroke-width=".05" fill="#3a414a"/><use xlink:href="#n" transform="matrix(1,0,0,1,-1085.7630208333333,589.2444798127552) translate(0 17.22222222222222)"/><path d="M-1084 760c-8.84 0-16 7.16-16 16v48c0 8.84 7.16 16 16 16h128c8.84 0 16-7.16 16-16v-48c0-8.84-7.16-16-16-16z" stroke="#000" stroke-width="2" fill="#fff"/><use xlink:href="#o" transform="matrix(1,0,0,1,-1092,768) translate(5.8921440972222285 40.083767361111114)"/><path d="M-1071.53 742.62h-.94v-11.86h.94zm0-33.38h-.94V681.5h.94z" stroke="#3a414a" stroke-width=".05" fill="#3a414a"/><path d="M-1072.05 681l.52-.02v.53h-.94v-.55z" fill="#3a414a"/><path stroke="#3a414a" stroke-width=".05" fill="#3a414a"/><path d="M-1072 757.38l-4.63-14.26h9.27z" fill="#3a414a"/><path d="M-1072 758.92l-5.3-16.28h10.6zm-3.98-15.33l3.98 12.25 3.98-12.26z" stroke="#3a414a" stroke-width=".05" fill="#3a414a"/><use xlink:href="#p" transform="matrix(1,0,0,1,-1077.993923611111,709.245103520578) translate(0 17.22222222222222)"/><path d="M-983 620c-8.84 0-16 7.16-16 16v48c0 8.84 7.16 16 16 16h128c8.84 0 16-7.16 16-16v-48c0-8.84-7.16-16-16-16z" stroke="#000" stroke-width="2" fill="#fff"/><use xlink:href="#q" transform="matrix(1,0,0,1,-990.9993762921772,628) translate(3.212022569444457 40.083767361111114)"/><path d="M-1043.94 660.48h-6.56v-.96h6.56zm27.56 0h-5.37v-.96h5.37z" stroke="#3a414a" stroke-width=".05" fill="#3a414a"/><path d="M-1050.5 660.48h-.55l.05-.44-.02-.5h.53z" fill="#3a414a"/><path stroke="#3a414a" stroke-width=".05" fill="#3a414a"/><path d="M-1001.62 660l-14.26 4.63v-9.26z" fill="#3a414a"/><path d="M-1000.08 660l-16.28 5.3v-10.6zm-15.33 3.98l12.25-3.98-12.26-3.98z" stroke="#3a414a" stroke-width=".05" fill="#3a414a"/><use xlink:href="#r" transform="matrix(1,0,0,1,-1043.9454633343441,649.2447916666666) translate(0 17.22222222222222)"/><path d="M-976.52 758.5h-.95v-11.14h.95zm0-32.65h-.95v-8.47h.95z" stroke="#3a414a" stroke-width=".05" fill="#3a414a"/><path d="M-976.52 759h-.95v-.5h.95z" fill="#3a414a"/><path stroke="#3a414a" stroke-width=".05" fill="#3a414a"/><path d="M-972.36 716.88h-9.27l4.63-14.26z" fill="#3a414a"/><path d="M-971.7 717.36h-10.6l5.3-16.28zm-9.28-.95h7.96l-3.98-12.25z" stroke="#3a414a" stroke-width=".05" fill="#3a414a"/><use xlink:href="#r" transform="matrix(1,0,0,1,-988.0974665699551,725.8447916666665) translate(0 17.22222222222222)"/><path d="M-898.52 533.82l-.08 1-.24.98-.4.94-.52.87-.66.78-.77.66-.86.53-.94.4-1 .23-.98.07h-17.64v-.94h17.6l.88-.07.85-.2.8-.34.75-.45.66-.56.57-.65.45-.74.33-.8.2-.84.07-.88v-3.73h.96zM-904 498.4l1 .24.94.4.87.52.78.66.66.77.53.86.4.94.23 1 .08.98v3.77h-.96v-3.73l-.06-.88-.2-.85-.34-.8-.45-.75-.56-.66-.65-.57-.74-.45-.8-.33-.84-.2-.88-.08h-33.48v-.94h33.52z" stroke="#3a414a" stroke-width=".05" fill="#3a414a"/><path d="M-938.5 499.27h-.5v-.94h.5z" fill="#3a414a"/><path stroke="#3a414a" stroke-width=".05" fill="#3a414a"/><path d="M-923.12 544.43l-14.26-4.63 14.26-4.63z" fill="#3a414a"/><path d="M-922.64 545.1l-16.28-5.3 16.28-5.3zm-13.2-5.3l12.25 3.98v-7.96z" stroke="#3a414a" stroke-width=".05" fill="#3a414a"/><use xlink:href="#s" transform="matrix(1,0,0,1,-914.9244791666666,508.54479166666664) translate(0 17.22222222222222)"/><path d="M-975.52 602.62h-.95v-9.9h.95zm0-31.4h-.95v-9.72h.95z" stroke="#3a414a" stroke-width=".05" fill="#3a414a"/><path d="M-975.52 561.5h-.95v-.5h.95z" fill="#3a414a"/><path stroke="#3a414a" stroke-width=".05" fill="#3a414a"/><path d="M-976 617.38l-4.63-14.26h9.27z" fill="#3a414a"/><path d="M-976 618.92l-5.3-16.28h10.6zm-3.98-15.33l3.98 12.25 3.98-12.26z" stroke="#3a414a" stroke-width=".05" fill="#3a414a"/><use xlink:href="#r" transform="matrix(1,0,0,1,-987.097466569955,571.2061951754384) translate(0 17.22222222222222)"/><path d="M-753.5 620c-8.84 0-16 7.16-16 16v48c0 8.84 7.16 16 16 16h128c8.84 0 16-7.16 16-16v-48c0-8.84-7.16-16-16-16z" stroke="#000" stroke-width="2" fill="#fff"/><use xlink:href="#t" transform="matrix(1,0,0,1,-761.4996881460886,628) translate(6.602864583333329 40.083767361111114)"/><path d="M-826.7 660.48h-10.8v-.96h10.8zm39.82 0h-7.96v-.96h7.96z" stroke="#3a414a" stroke-width=".05" fill="#3a414a"/><path d="M-837.5 660.48h-.5v-.96h.5z" fill="#3a414a"/><path stroke="#3a414a" stroke-width=".05" fill="#3a414a"/><path d="M-772.12 660l-14.26 4.63v-9.26z" fill="#3a414a"/><path d="M-770.58 660l-16.28 5.3v-10.6zm-15.33 3.98l12.25-3.98-12.26-3.98z" stroke="#3a414a" stroke-width=".05" fill="#3a414a"/><use xlink:href="#s" transform="matrix(1,0,0,1,-826.6875942964083,649.2447916666666) translate(0 17.22222222222222)"/><path d="M-705.27 590.48h-7.7l-.9.06-.83.2-.8.34-.74.45-.66.56-.56.65-.45.74-.35.8-.2.84-.07.88v22.48h-.95v-22.52l.08-1 .25-.98.4-.94.52-.87.66-.78.77-.66.87-.53.94-.4 1-.23 1-.08h7.73zm40.58-.88l1 .24.94.4.87.52.78.66.66.77.53.86.4.94.23 1 .07.98v6.64h-.95v-6.6l-.07-.88-.2-.85-.33-.8-.45-.75-.57-.66-.66-.57-.73-.45-.8-.33-.84-.2-.88-.07h-7.7v-.96h7.74z" stroke="#3a414a" stroke-width=".05" fill="#3a414a"/><path d="M-718.52 619h-.95v-.5h.95z" fill="#3a414a"/><path stroke="#3a414a" stroke-width=".05" fill="#3a414a"/><path d="M-659.7 617.38l-4.64-14.26h9.27z" fill="#3a414a"/><path d="M-659.7 618.92l-5.3-16.28h10.6zm-3.98-15.33l3.98 12.25 3.98-12.26z" stroke="#3a414a" stroke-width=".05" fill="#3a414a"/><use xlink:href="#s" transform="matrix(1,0,0,1,-705.2716187334871,579.2447916666666) translate(0 17.22222222222222)"/><path d="M-520 660c0 11.05-8.95 20-20 20s-20-8.95-20-20 8.95-20 20-20 20 8.95 20 20z" stroke="#000" stroke-width="2" fill="#fff"/><path d="M-528 660c0 6.63-5.37 12-12 12s-12-5.37-12-12 5.37-12 12-12 12 5.37 12 12z" stroke="#000" stroke-width="2"/><path d="M-608 660h30.62" stroke="#3a414a" fill="none"/><path d="M-608 660.48h-.5v-.96h.5z" stroke="#3a414a" stroke-width=".05" fill="#3a414a"/><path d="M-562.62 660l-14.26 4.63v-9.26z" stroke="#3a414a" fill="#3a414a"/><path d="M-1060 1040c0 11.05-8.95 20-20 20s-20-8.95-20-20 8.95-20 20-20 20 8.95 20 20z" stroke="#000" stroke-width="2"/><path d="M-1040.38 1040.47h-18.12v-.94h18.12zm24 0h-16.33v-.94h16.32z" stroke="#3a414a" stroke-width=".05" fill="#3a414a"/><path d="M-1058.5 1040.47h-.55l.05-.42-.02-.52h.53z" fill="#3a414a"/><path stroke="#3a414a" stroke-width=".05" fill="#3a414a"/><path d="M-1001.62 1040l-14.26 4.63v-9.27z" fill="#3a414a"/><path d="M-1000.08 1040l-16.28 5.3v-10.6zm-15.33 3.98l12.25-3.98-12.26-3.98z" stroke="#3a414a" stroke-width=".05" fill="#3a414a"/><use xlink:href="#u" transform="matrix(1,0,0,1,-1040.3777772253607,1029.2447916666667) translate(0 17.22222222222222)"/><path d="M-983 1140c-8.84 0-16 7.16-16 16v48c0 8.84 7.16 16 16 16h128c8.84 0 16-7.16 16-16v-48c0-8.84-7.16-16-16-16z" stroke="#000" stroke-width="2" fill="#fff"/><use xlink:href="#v" transform="matrix(1,0,0,1,-990.9993762921772,1148) translate(-0.7701822916666572 40.083767361111114)"/><path d="M-983 1000c-8.84 0-16 7.16-16 16v48c0 8.84 7.16 16 16 16h128c8.84 0 16-7.16 16-16v-48c0-8.84-7.16-16-16-16z" stroke="#000" stroke-width="2" fill="#fff"/><use xlink:href="#w" transform="matrix(1,0,0,1,-990.9993762921772,1008) translate(12.044487847222229 40.083767361111114)"/><path d="M-808.52 1195.4l-.08.98-.24 1-.4.93-.52.88-.66.77-.77.66-.86.54-.94.4-1 .23-.98.07h-6.63v-.95h6.58l.88-.08.85-.2.8-.33.75-.46.66-.57.57-.65.45-.74.33-.8.2-.85.08-.88V1192h.95zm-5.47-34.65l1 .24.94.38.87.53.78.67.66.77.53.87.4.94.23 1 .08 1v3.36h-.95v-3.34l-.07-.88-.2-.84-.34-.8-.45-.74-.56-.66-.65-.56-.74-.46-.8-.33-.84-.2-.88-.08h-22.48v-.95h22.52z" stroke="#3a414a" stroke-width=".05" fill="#3a414a"/><path d="M-837.5 1161.62h-.5v-.95h.5z" fill="#3a414a"/><path stroke="#3a414a" stroke-width=".05" fill="#3a414a"/><path d="M-822.1 1206l-14.28-4.63 14.26-4.64z" fill="#3a414a"/><path d="M-821.64 1206.66l-16.28-5.3 16.28-5.28zm-13.2-5.3l12.25 4v-7.97z" stroke="#3a414a" stroke-width=".05" fill="#3a414a"/><use xlink:href="#x" transform="matrix(1,0,0,1,-814.9932999032883,1170.501550072778) translate(0 17.22222222222222)"/><path d="M-949.08 1122.62h-.95v-1.86h.95zm0-23.38h-.95v-17.74h.95z" stroke="#3a414a" stroke-width=".05" fill="#3a414a"/><path d="M-949.08 1081.5h-.95v-.5h.95z" fill="#3a414a"/><path stroke="#3a414a" stroke-width=".05" fill="#3a414a"/><path d="M-949.55 1137.38l-4.64-14.26h9.28z" fill="#3a414a"/><path d="M-949.55 1138.92l-5.3-16.28h10.6zm-4-15.33l4 12.25 3.98-12.26z" stroke="#3a414a" stroke-width=".05" fill="#3a414a"/><use xlink:href="#u" transform="matrix(1,0,0,1,-953.3866625955485,1099.2447916666667) translate(0 17.22222222222222)"/><path d="M-889.05 1138.5h-.95v-17.74h.95zm0-39.26h-.95v-1.86h.95z" stroke="#3a414a" stroke-width=".05" fill="#3a414a"/><path d="M-889.05 1139h-.95v-.5h.95z" fill="#3a414a"/><path stroke="#3a414a" stroke-width=".05" fill="#3a414a"/><path d="M-884.9 1096.88h-9.26l4.63-14.26z" fill="#3a414a"/><path d="M-884.24 1097.36h-10.57l5.27-16.28zm-9.27-.95h7.96l-4-12.25z" stroke="#3a414a" stroke-width=".05" fill="#3a414a"/><use xlink:href="#x" transform="matrix(1,0,0,1,-895.5185521590828,1099.2447916666667) translate(0 17.22222222222222)"/><path d="M-922.18 970.48h-9.8l-.88.06-.84.2-.8.34-.74.45-.66.56-.56.65-.45.74-.35.8-.2.84-.07.88v22.48h-.95v-22.52l.08-1 .25-.98.4-.94.52-.87.66-.78.77-.66.87-.53.94-.4 1-.23 1-.08h9.82zm18.48-.88l1 .24.93.4.87.52.77.66.66.77.53.86.4.94.22 1 .08.98v6.64h-.95v-6.6l-.06-.88-.2-.85-.33-.8-.44-.75-.57-.66-.67-.57-.73-.45-.8-.33-.85-.2-.88-.07h-9.8v-.96h9.84z" stroke="#3a414a" stroke-width=".05" fill="#3a414a"/><path d="M-937.52 999h-.95v-.5h.95z" fill="#3a414a"/><path stroke="#3a414a" stroke-width=".05" fill="#3a414a"/><path d="M-898.7 997.38l-4.65-14.26h9.27z" fill="#3a414a"/><path d="M-898.7 998.92l-5.3-16.28h10.58zm-4-15.33l4 12.25 3.97-12.26z" stroke="#3a414a" stroke-width=".05" fill="#3a414a"/><use xlink:href="#u" transform="matrix(1,0,0,1,-922.1842961997199,959.2447916666666) translate(0 17.22222222222222)"/><path d="M-738 1040c0 11.05-8.95 20-20 20-11.04 0-20-8.95-20-20s8.96-20 20-20c11.05 0 20 8.95 20 20z" stroke="#000" stroke-width="2" fill="#fff"/><path d="M-746 1040c0 6.63-5.37 12-12 12s-12-5.37-12-12 5.37-12 12-12 12 5.37 12 12z" stroke="#000" stroke-width="2"/><path d="M-837.5 1040h42.12" stroke="#3a414a" fill="none"/><path d="M-837.5 1040.47h-.5v-.94h.5z" stroke="#3a414a" stroke-width=".05" fill="#3a414a"/><path d="M-780.62 1040l-14.26 4.63v-9.27z" stroke="#3a414a" fill="#3a414a"/><path d="M-1060 1520c0 11.05-8.95 20-20 20s-20-8.95-20-20 8.95-20 20-20 20 8.95 20 20z" stroke="#000" stroke-width="2"/><path d="M-1050.04 1520.47h-8.46v-.94h8.46zm110.5-6.45l-.06 1-.24.98-.4.94-.52.87-.66.78-.77.66-.86.53-.94.4-1 .23-.98.07h-4.55v-.94h4.5l.9-.07.84-.2.8-.34.75-.45.66-.56.57-.65.45-.74.33-.8.2-.84.07-.88v-36.6h.96z" stroke="#3a414a" stroke-width=".05" fill="#3a414a"/><path d="M-1058.5 1520.47h-.55l.05-.42-.02-.52h.53z" fill="#3a414a"/><path stroke="#3a414a" stroke-width=".05" fill="#3a414a"/><path d="M-935.37 1476.88h-9.26l4.63-14.26z" fill="#3a414a"/><path d="M-934.7 1477.36h-10.6l5.3-16.28zm-9.28-.95h7.96l-3.98-12.25z" stroke="#3a414a" stroke-width=".05" fill="#3a414a"/><use xlink:href="#y" transform="matrix(1,0,0,1,-1050.0399256891042,1509.2447916666667) translate(0 17.22222222222222)"/><use xlink:href="#z" transform="matrix(1,0,0,1,-1050.0399256891042,1509.2447916666667) translate(32.69097222222223 17.22222222222222)"/><use xlink:href="#A" transform="matrix(1,0,0,1,-1050.0399256891042,1509.2447916666667) translate(54.965277777777786 17.22222222222222)"/><use xlink:href="#B" transform="matrix(1,0,0,1,-1050.0399256891042,1509.2447916666667) translate(77.31770833333334 17.22222222222222)"/><path d="M-1004 1380c-8.84 0-16 7.16-16 16v48c0 8.84 7.16 16 16 16h128c8.84 0 16-7.16 16-16v-48c0-8.84-7.16-16-16-16z" stroke="#000" stroke-width="2" fill="#fff"/><use xlink:href="#C" transform="matrix(1,0,0,1,-1012,1388) translate(29.13433159722222 40.083767361111114)"/><path d="M-968.08 1350.47h-6.53l-.9.07-.84.2-.8.34-.74.45-.66.56-.56.65-.45.74-.34.8-.2.84-.06.88v22.48h-.95v-22.52l.07-1 .24-.98.4-.94.53-.87.66-.78.76-.66.87-.53.94-.4.98-.23 1-.07h6.57zm62.46-.87l1 .24.93.4.87.52.78.66.66.77.54.86.4.94.22 1 .08.98v6.64h-.95v-6.6l-.08-.88-.2-.85-.33-.8-.46-.75-.57-.66-.66-.57-.73-.45-.8-.33-.84-.2-.88-.08h-6.54v-.94h6.6z" stroke="#3a414a" stroke-width=".05" fill="#3a414a"/><path d="M-980.16 1379h-.95v-.5h.94z" fill="#3a414a"/><path stroke="#3a414a" stroke-width=".05" fill="#3a414a"/><path d="M-900.63 1377.38l-4.64-14.26h9.27z" fill="#3a414a"/><path d="M-900.63 1378.92l-5.3-16.28h10.58zm-4-15.33l4 12.25 3.98-12.26z" stroke="#3a414a" stroke-width=".05" fill="#3a414a"/><use xlink:href="#D" transform="matrix(1,0,0,1,-968.0772215761336,1339.2447916666667) translate(0 17.22222222222222)"/><use xlink:href="#E" transform="matrix(1,0,0,1,-968.0772215761336,1339.2447916666667) translate(32.69097222222223 17.22222222222222)"/><path d="M-864 1480c-8.84 0-16 7.16-16 16v48c0 8.84 7.16 16 16 16h128c8.84 0 16-7.16 16-16v-48c0-8.84-7.16-16-16-16z" stroke="#000" stroke-width="2" fill="#fff"/><use xlink:href="#F" transform="matrix(1,0,0,1,-872,1488) translate(21.652777777777786 40.083767361111114)"/><path d="M-807 1419.6l1 .24.94.4.87.52.78.66.66.77.53.86.4.94.23 1 .07.98v36.64h-.95v-36.6l-.07-.88-.2-.85-.33-.8-.45-.75-.57-.66-.65-.57-.74-.45-.8-.33-.84-.2-.88-.08h-13.95v-.94h14zm-51.5.88v-.95h18.47v.94z" stroke="#3a414a" stroke-width=".05" fill="#3a414a"/><path d="M-858.5 1420.47h-.5v-.94h.5z" fill="#3a414a"/><path stroke="#3a414a" stroke-width=".05" fill="#3a414a"/><path d="M-802 1477.38l-4.64-14.26h9.27z" fill="#3a414a"/><path d="M-802 1478.92l-5.3-16.28h10.6zm-3.98-15.33l3.98 12.25 3.98-12.26z" stroke="#3a414a" stroke-width=".05" fill="#3a414a"/><use xlink:href="#G" transform="matrix(1,0,0,1,-840.0342699422258,1409.2447916666667) translate(0 17.22222222222222)"/><path d="M-664 1380c-8.84 0-16 7.16-16 16v48c0 8.84 7.16 16 16 16h128c8.84 0 16-7.16 16-16v-48c0-8.84-7.16-16-16-16z" stroke="#000" stroke-width="2" fill="#fff"/><use xlink:href="#H" transform="matrix(1,0,0,1,-672,1388) translate(29.014973958333336 40.083767361111114)"/><path d="M-709.6 1516.84h-8.9v-.95l8.9-.02zm110.08-6.46l-.08 1-.24.98-.4.94-.52.87-.66.77-.77.66-.86.53-.94.4-1 .23-.98.08h-4.1v-.95l4.06-.02.88-.06.85-.2.8-.34.75-.45.66-.56.57-.66.45-.73.33-.8.2-.85.07-.88v-32.96h.96z" stroke="#3a414a" stroke-width=".05" fill="#3a414a"/><path d="M-718.5 1516.84h-.5v-.95l.5-.02z" fill="#3a414a"/><path stroke="#3a414a" stroke-width=".05" fill="#3a414a"/><path d="M-595.37 1476.88h-9.26l4.63-14.26z" fill="#3a414a"/><path d="M-594.7 1477.36h-10.6l5.3-16.28zm-9.28-.95h7.96l-3.98-12.25z" stroke="#3a414a" stroke-width=".05" fill="#3a414a"/><use xlink:href="#y" transform="matrix(1,0,0,1,-709.5862840943981,1505.604869071857) translate(0 17.22222222222222)"/><use xlink:href="#z" transform="matrix(1,0,0,1,-709.5862840943981,1505.604869071857) translate(32.69097222222223 17.22222222222222)"/><use xlink:href="#A" transform="matrix(1,0,0,1,-709.5862840943981,1505.604869071857) translate(54.965277777777786 17.22222222222222)"/><use xlink:href="#B" transform="matrix(1,0,0,1,-709.5862840943981,1505.604869071857) translate(77.31770833333334 17.22222222222222)"/><path d="M-625.68 1351.47h-8.8l-.88.07-.85.2-.8.34-.75.45-.66.56-.57.65-.45.74-.33.8-.2.84-.07.88v21.48h-.96v-21.52l.08-1 .24-.98.4-.94.52-.87.66-.78.77-.66.86-.53.94-.4 1-.23.98-.07h8.84zm60.6-.87l.98.24.94.4.87.52.78.66.66.77.53.86.4.94.23 1 .08.98v5.64h-.96v-5.6l-.06-.88-.2-.85-.34-.8-.45-.75-.56-.66-.65-.57-.74-.45-.8-.33-.84-.2-.88-.08h-8.8v-.94h8.84z" stroke="#3a414a" stroke-width=".05" fill="#3a414a"/><path d="M-640.02 1379h-.96v-.5h.96z" fill="#3a414a"/><path stroke="#3a414a" stroke-width=".05" fill="#3a414a"/><path d="M-560.1 1377.38l-4.63-14.26h9.26z" fill="#3a414a"/><path d="M-560.1 1378.92l-5.3-16.28h10.6zm-3.98-15.33l3.98 12.25 3.98-12.26z" stroke="#3a414a" stroke-width=".05" fill="#3a414a"/><use xlink:href="#y" transform="matrix(1,0,0,1,-625.6777600936223,1340.2447916666667) translate(0 17.22222222222222)"/><use xlink:href="#I" transform="matrix(1,0,0,1,-625.6777600936223,1340.2447916666667) translate(32.69097222222223 17.22222222222222)"/><path d="M-524 1480c-8.84 0-16 7.16-16 16v48c0 8.84 7.16 16 16 16h128c8.84 0 16-7.16 16-16v-48c0-8.84-7.16-16-16-16z" stroke="#000" stroke-width="2" fill="#fff"/><use xlink:href="#J" transform="matrix(1,0,0,1,-532,1488) translate(-1.291015625 40.083767361111114)"/><path d="M-465 1419.6l1 .24.94.4.87.52.78.66.66.77.53.86.4.94.23 1 .08.98v36.64h-.96v-36.6l-.06-.88-.2-.85-.34-.8-.45-.75-.56-.66-.65-.57-.74-.45-.8-.33-.84-.2-.88-.08h-11.23v-.94h11.27zm-53.5.88v-.95h19.06v.94z" stroke="#3a414a" stroke-width=".05" fill="#3a414a"/><path d="M-518.5 1420.47h-.5v-.94h.5z" fill="#3a414a"/><path stroke="#3a414a" stroke-width=".05" fill="#3a414a"/><path d="M-460 1477.38l-4.63-14.26h9.26z" fill="#3a414a"/><path d="M-460 1478.92l-5.3-16.28h10.6zm-3.98-15.33l3.98 12.25 3.98-12.26z" stroke="#3a414a" stroke-width=".05" fill="#3a414a"/><use xlink:href="#K" transform="matrix(1,0,0,1,-499.44155112994616,1409.2447916666667) translate(0 17.22222222222222)"/><path d="M-369.2 1520.47h-9.3v-.94h9.3zm109.68-6.45l-.08 1-.24.98-.4.94-.52.87-.66.78-.77.66-.86.53-.94.4-1 .23-.98.07h-3.7v-.94h3.66l.88-.07.85-.2.8-.34.75-.45.66-.56.57-.65.45-.74.33-.8.2-.84.07-.88v-36.6h.96z" stroke="#3a414a" stroke-width=".05" fill="#3a414a"/><path d="M-378.5 1520.47h-.5v-.94h.5z" fill="#3a414a"/><path stroke="#3a414a" stroke-width=".05" fill="#3a414a"/><path d="M-255.37 1476.88h-9.26l4.63-14.26z" fill="#3a414a"/><path d="M-254.7 1477.36h-10.6l5.3-16.28zm-9.28-.95h7.96l-3.98-12.25z" stroke="#3a414a" stroke-width=".05" fill="#3a414a"/><use xlink:href="#y" transform="matrix(1,0,0,1,-369.203809636714,1509.2447916666667) translate(0 17.22222222222222)"/><use xlink:href="#z" transform="matrix(1,0,0,1,-369.203809636714,1509.2447916666667) translate(32.69097222222223 17.22222222222222)"/><use xlink:href="#A" transform="matrix(1,0,0,1,-369.203809636714,1509.2447916666667) translate(54.965277777777786 17.22222222222222)"/><use xlink:href="#B" transform="matrix(1,0,0,1,-369.203809636714,1509.2447916666667) translate(77.31770833333334 17.22222222222222)"/><path d="M-324 1380c-8.84 0-16 7.16-16 16v48c0 8.84 7.16 16 16 16h128c8.84 0 16-7.16 16-16v-48c0-8.84-7.16-16-16-16z" stroke="#000" stroke-width="2" fill="#fff"/><use xlink:href="#L" transform="matrix(1,0,0,1,-332,1388) translate(20.350694444444436 40.083767361111114)"/><path d="M-80 1420c0 11.05-8.95 20-20 20s-20-8.95-20-20 8.95-20 20-20 20 8.95 20 20z" stroke="#000" stroke-width="2" fill="#fff"/><path d="M-88 1420c0 6.63-5.37 12-12 12s-12-5.37-12-12 5.37-12 12-12 12 5.37 12 12z" stroke="#000" stroke-width="2"/><path d="M-178.5 1420h41.12" stroke="#3a414a" fill="none"/><path d="M-178.5 1420.47h-.5v-.94h.5z" stroke="#3a414a" stroke-width=".05" fill="#3a414a"/><path d="M-122.62 1420l-14.26 4.63v-9.27z" stroke="#3a414a" fill="#3a414a"/><path d="M-308.86 1350.47h-3.22l-.88.07-.85.2-.8.34-.75.45-.65.56-.57.65-.45.74-.33.8-.2.84-.07.88v22.48h-.95v-22.52l.07-1 .24-.98.4-.94.52-.87.66-.78.77-.66.86-.53.94-.4 1-.23.98-.07h3.26zm103.77-.87l1 .24.94.4.87.52.78.66.66.77.53.86.4.94.23 1 .07.98v6.64h-.94v-6.6l-.07-.88-.2-.85-.34-.8-.45-.75-.56-.66-.65-.57-.74-.45-.8-.33-.84-.2-.88-.08h-3.22v-.94h3.26z" stroke="#3a414a" stroke-width=".05" fill="#3a414a"/><path d="M-317.63 1379h-.94v-.5h.94z" fill="#3a414a"/><path stroke="#3a414a" stroke-width=".05" fill="#3a414a"/><path d="M-200.1 1377.38l-4.64-14.26h9.28z" fill="#3a414a"/><path d="M-200.1 1378.92l-5.3-16.28h10.6zm-3.98-15.33l3.98 12.25 3.98-12.26z" stroke="#3a414a" stroke-width=".05" fill="#3a414a"/><use xlink:href="#y" transform="matrix(1,0,0,1,-308.85663259053297,1339.2447916666667) translate(0 17.22222222222222)"/><use xlink:href="#z" transform="matrix(1,0,0,1,-308.85663259053297,1339.2447916666667) translate(32.69097222222223 17.22222222222222)"/><use xlink:href="#A" transform="matrix(1,0,0,1,-308.85663259053297,1339.2447916666667) translate(54.965277777777786 17.22222222222222)"/><use xlink:href="#B" transform="matrix(1,0,0,1,-308.85663259053297,1339.2447916666667) translate(77.31770833333334 17.22222222222222)"/><path d="M-1060 1900c0 11.05-8.95 20-20 20s-20-8.95-20-20 8.95-20 20-20 20 8.95 20 20z" stroke="#000" stroke-width="2"/><path d="M-1079.53 1878.5h-.94v-15h.94zm62.15-98.03h-56.6l-.88.07-.85.2-.8.34-.75.45-.66.56-.57.65-.45.74-.33.8-.2.84-.08.88V1842h-.94v-56.02l.07-1 .24-.98.4-.94.52-.87.66-.78.77-.66.86-.53.94-.4 1-.23.98-.07h56.64z" stroke="#3a414a" stroke-width=".05" fill="#3a414a"/><path d="M-1079.53 1879.05l-.42-.05-.52.02v-.53h.94z" fill="#3a414a"/><path stroke="#3a414a" stroke-width=".05" fill="#3a414a"/><path d="M-1002.62 1780l-14.26 4.63v-9.27z" fill="#3a414a"/><path d="M-1001.08 1780l-16.28 5.3v-10.6zm-15.33 3.98l12.25-3.98-12.26-3.98z" stroke="#3a414a" stroke-width=".05" fill="#3a414a"/><use xlink:href="#M" transform="matrix(1,0,0,1,-1103.1770833333333,1841.994927015848) translate(0 17.22222222222222)"/><path d="M-984 1740c-8.84 0-16 7.16-16 16v48c0 8.84 7.16 16 16 16h128c8.84 0 16-7.16 16-16v-48c0-8.84-7.16-16-16-16z" stroke="#000" stroke-width="2" fill="#fff"/><use xlink:href="#N" transform="matrix(1,0,0,1,-992,1748) translate(36.47482638888889 40.083767361111114)"/><path d="M-744 1980c-8.84 0-16 7.16-16 16v48c0 8.84 7.16 16 16 16h128c8.84 0 16-7.16 16-16v-48c0-8.84-7.16-16-16-16z" stroke="#000" stroke-width="2" fill="#fff"/><use xlink:href="#O" transform="matrix(1,0,0,1,-752,1988) translate(8.51258680555555 40.083767361111114)"/><path d="M-1079.53 2013.98l.07.88.2.85.34.8.45.75.56.66.65.57.74.45.8.33.84.2.88.08h43.36v.94h-43.4l-1-.07-.98-.24-.94-.4-.87-.52-.78-.66-.66-.77-.53-.86-.4-.94-.23-1-.07-.98v-92.52h.94zm302.15 5.55v.94h-132v-.94z" stroke="#3a414a" stroke-width=".05" fill="#3a414a"/><path d="M-1080.05 1921l.52-.02v.53h-.94v-.55z" fill="#3a414a"/><path stroke="#3a414a" stroke-width=".05" fill="#3a414a"/><path d="M-762.62 2020l-14.26 4.63v-9.27z" fill="#3a414a"/><path d="M-761.08 2020l-16.28 5.3v-10.6zm-15.33 3.98l12.25-3.98-12.26-3.98z" stroke="#3a414a" stroke-width=".05" fill="#3a414a"/><use xlink:href="#P" transform="matrix(1,0,0,1,-1030.6246881460886,2009.2447916666667) translate(0 17.22222222222222)"/><path d="M-685 1779.6l1 .24.94.4.87.52.78.66.66.77.53.86.4.94.23 1 .08.98v176.64h-.96v-176.6l-.06-.88-.2-.85-.34-.8-.45-.75-.56-.66-.65-.57-.74-.45-.8-.33-.84-.2-.88-.08h-13.64v-.94h13.68zm-153.5.88v-.95h17.6v.94z" stroke="#3a414a" stroke-width=".05" fill="#3a414a"/><path d="M-838.5 1780.47h-.5v-.94h.5z" fill="#3a414a"/><path stroke="#3a414a" stroke-width=".05" fill="#3a414a"/><path d="M-680 1977.38l-4.63-14.26h9.26z" fill="#3a414a"/><path d="M-680 1978.92l-5.3-16.28h10.6zm-3.98-15.33l3.98 12.25 3.98-12.26z" stroke="#3a414a" stroke-width=".05" fill="#3a414a"/><use xlink:href="#P" transform="matrix(1,0,0,1,-820.909039035941,1769.2447916666667) translate(0 17.22222222222222)"/><path d="M-709.2 2083.98l.08.88.2.85.33.8.46.75.57.66.66.57.72.45.8.33.85.2.88.08h.75v.94h-.8l-.98-.07-1-.24-.93-.4-.88-.52-.77-.66-.66-.77-.54-.86-.4-.94-.23-1-.07-.98v-22.52h.95zm59.9.04l-.1 1-.23.98-.4.94-.52.87-.66.78-.78.66-.87.53-.93.4-1 .23-1 .07h-.77v-.94h.75l.88-.07.84-.2.8-.34.74-.45.66-.56.56-.65.46-.74.33-.8.2-.84.07-.88v-6.6h.95z" stroke="#3a414a" stroke-width=".05" fill="#3a414a"/><path d="M-709.2 2061.5h-.94v-.5h.95z" fill="#3a414a"/><path stroke="#3a414a" stroke-width=".05" fill="#3a414a"/><path d="M-645.15 2076.88h-9.27l4.63-14.26z" fill="#3a414a"/><path d="M-644.5 2077.36h-10.58l5.3-16.28zm-9.27-.95h7.97l-4-12.24z" stroke="#3a414a" stroke-width=".05" fill="#3a414a"/><use xlink:href="#M" transform="matrix(1,0,0,1,-702.9042026309922,2079.2447916666665) translate(0 17.22222222222222)"/><path d="M-864 1860c-8.84 0-16 7.16-16 16v48c0 8.84 7.16 16 16 16h128c8.84 0 16-7.16 16-16v-48c0-8.84-7.16-16-16-16z" stroke="#000" stroke-width="2" fill="#fff"/><use xlink:href="#Q" transform="matrix(1,0,0,1,-872,1868) translate(5.219401041666671 40.083767361111114)"/><path d="M-1039 1900.47h-19.5v-.94h19.5zm141.62 0h-108.82v-.94h108.82z" stroke="#3a414a" stroke-width=".05" fill="#3a414a"/><path d="M-1058.5 1900.47h-.55l.05-.42-.02-.52h.53z" fill="#3a414a"/><path stroke="#3a414a" stroke-width=".05" fill="#3a414a"/><path d="M-882.62 1900l-14.26 4.63v-9.27z" fill="#3a414a"/><path d="M-881.08 1900l-16.28 5.3v-10.6zm-15.33 3.98l12.25-3.98-12.26-3.98z" stroke="#3a414a" stroke-width=".05" fill="#3a414a"/><use xlink:href="#R" transform="matrix(1,0,0,1,-1038.9939435614315,1889.2447916666667) translate(0 17.22222222222222)"/><path d="M-919.52 1893.98l.06.88.2.85.34.8.45.75.56.66.65.57.74.45.8.33.84.2.88.08h16.6v.94h-16.64l-1-.07-.98-.24-.94-.4-.87-.52-.78-.66-.66-.77-.53-.86-.4-.94-.23-1-.08-.98v-39.8h.96zm0-61.27h-.96v-11.2h.96z" stroke="#3a414a" stroke-width=".05" fill="#3a414a"/><path d="M-919.52 1821.5h-.96v-.5h.96z" fill="#3a414a"/><path stroke="#3a414a" stroke-width=".05" fill="#3a414a"/><path d="M-882.62 1900l-14.26 4.63v-9.27z" fill="#3a414a"/><path d="M-881.08 1900l-16.28 5.3v-10.6zm-15.33 3.98l12.25-3.98-12.26-3.98z" stroke="#3a414a" stroke-width=".05" fill="#3a414a"/><use xlink:href="#R" transform="matrix(1,0,0,1,-936.3975694444445,1832.7135546783838) translate(0 17.22222222222222)"/><path d="M-943.48 1710.47h-.65l-.9.07-.83.2-.8.34-.74.45-.66.56-.56.65-.45.74-.34.8-.2.84-.08.88v22.48h-.95v-22.52l.08-1 .24-.98.38-.94.53-.87.67-.78.77-.66.87-.53.95-.4.98-.23 1-.07h.7zm48.05-.87l.98.24.94.4.86.52.77.66.66.77.53.86.38.94.25 1 .08.98v6.64h-.95v-6.6l-.07-.88-.2-.85-.32-.8-.46-.75-.56-.66-.66-.57-.74-.45-.8-.33-.84-.2-.88-.08h-.66v-.94h.7z" stroke="#3a414a" stroke-width=".05" fill="#3a414a"/><path d="M-949.68 1739h-.95v-.5h.95z" fill="#3a414a"/><path stroke="#3a414a" stroke-width=".05" fill="#3a414a"/><path d="M-890.45 1737.38l-4.63-14.26h9.27z" fill="#3a414a"/><path d="M-890.45 1738.92l-5.28-16.28h10.57zm-3.98-15.33l3.98 12.25 4-12.26z" stroke="#3a414a" stroke-width=".05" fill="#3a414a"/><use xlink:href="#M" transform="matrix(1,0,0,1,-943.4764092880848,1699.2447916666667) translate(0 17.22222222222222)"/><path d="M-822.9 1831.47h-.67l-.88.07-.84.2-.8.34-.73.45-.66.56-.55.65-.46.74-.34.8-.2.84-.07.88v21.48h-.96v-21.52l.08-1 .24-.98.4-.94.52-.87.66-.78.77-.66.88-.53.93-.4 1-.23 1-.07h.7zm48.07-.87l1 .24.93.4.86.52.77.66.66.77.53.86.4.94.22 1 .08.98v5.64h-.95v-5.6l-.07-.88-.2-.85-.32-.8-.46-.75-.56-.66-.66-.57-.74-.45-.8-.33-.84-.2-.88-.08h-.68v-.94h.7z" stroke="#3a414a" stroke-width=".05" fill="#3a414a"/><path d="M-829.1 1859h-.96v-.5h.95z" fill="#3a414a"/><path stroke="#3a414a" stroke-width=".05" fill="#3a414a"/><path d="M-769.85 1857.38l-4.63-14.26h9.27z" fill="#3a414a"/><path d="M-769.85 1858.92l-5.28-16.28h10.57zm-3.98-15.33l4 12.25 3.97-12.26z" stroke="#3a414a" stroke-width=".05" fill="#3a414a"/><use xlink:href="#M" transform="matrix(1,0,0,1,-822.8911521433846,1820.2447916666667) translate(0 17.22222222222222)"/><path d="M-504 1780c-8.84 0-16 7.16-16 16v48c0 8.84 7.16 16 16 16h128c8.84 0 16-7.16 16-16v-48c0-8.84-7.16-16-16-16z" stroke="#000" stroke-width="2" fill="#fff"/><use xlink:href="#S" transform="matrix(1,0,0,1,-512,1788) translate(-4.795789930555557 40.083767361111114)"/><path d="M-659.08 1900.47h-59.42v-.94h59.42zm180.16-6.45l-.08 1-.24.98-.4.94-.52.87-.66.78-.77.66-.86.53-.94.4-1 .23-.98.07h-52.45v-.94h52.4l.9-.07.84-.2.8-.34.75-.45.66-.56.57-.65.45-.74.33-.8.2-.84.07-.88v-16.6h.95z" stroke="#3a414a" stroke-width=".05" fill="#3a414a"/><path d="M-718.5 1900.47h-.5v-.94h.5z" fill="#3a414a"/><path stroke="#3a414a" stroke-width=".05" fill="#3a414a"/><path d="M-474.76 1876.88h-9.28l4.64-14.26z" fill="#3a414a"/><path d="M-474.1 1877.36h-10.6l5.3-16.28zm-9.28-.95h7.96l-3.98-12.25z" stroke="#3a414a" stroke-width=".05" fill="#3a414a"/><use xlink:href="#P" transform="matrix(1,0,0,1,-659.0755302524697,1889.2447916666667) translate(0 17.22222222222222)"/><path d="M-504 1980c-8.84 0-16 7.16-16 16v48c0 8.84 7.16 16 16 16h128c8.84 0 16-7.16 16-16v-48c0-8.84-7.16-16-16-16z" stroke="#000" stroke-width="2" fill="#fff"/><use xlink:href="#T" transform="matrix(1,0,0,1,-512,1988) translate(12.456814236111114 40.083767361111114)"/><path d="M-582.4 2020.47h-16.1v-.94h16.1zm45.02 0h-12.22v-.94h12.22z" stroke="#3a414a" stroke-width=".05" fill="#3a414a"/><path d="M-598.5 2020.47h-.5v-.94h.5z" fill="#3a414a"/><path stroke="#3a414a" stroke-width=".05" fill="#3a414a"/><path d="M-522.62 2020l-14.26 4.63v-9.27z" fill="#3a414a"/><path d="M-521.08 2020l-16.28 5.3v-10.6zm-15.33 3.98l12.25-3.98-12.26-3.98z" stroke="#3a414a" stroke-width=".05" fill="#3a414a"/><use xlink:href="#R" transform="matrix(1,0,0,1,-582.3975694444445,2009.2447916666667) translate(0 17.22222222222222)"/><path d="M-478.93 1978.5h-.94v-11.45h.94zm0-32.96h-.94v-68.16h.94z" stroke="#3a414a" stroke-width=".05" fill="#3a414a"/><path d="M-478.93 1979h-.94v-.5h.94z" fill="#3a414a"/><path stroke="#3a414a" stroke-width=".05" fill="#3a414a"/><path d="M-474.76 1876.88h-9.28l4.64-14.26z" fill="#3a414a"/><path d="M-474.1 1877.36h-10.6l5.3-16.28zm-9.28-.95h7.96l-3.98-12.25z" stroke="#3a414a" stroke-width=".05" fill="#3a414a"/><g><use xlink:href="#P" transform="matrix(1,0,0,1,-540.0250000000001,1945.5432835293657) translate(0 17.22222222222222)"/></g><path d="M-399.18 1962.62h-.94v-68.74h.94zm0-90.26h-.94v-10.86h.94z" stroke="#3a414a" stroke-width=".05" fill="#3a414a"/><path d="M-399.18 1861.5h-.94v-.5h.94z" fill="#3a414a"/><path stroke="#3a414a" stroke-width=".05" fill="#3a414a"/><path d="M-399.65 1977.38l-4.64-14.26h9.3z" fill="#3a414a"/><path d="M-399.65 1978.92l-5.3-16.28h10.6zm-3.98-15.33l3.98 12.25 3.98-12.26z" stroke="#3a414a" stroke-width=".05" fill="#3a414a"/><g><use xlink:href="#M" transform="matrix(1,0,0,1,-422.8270833333343,1872.3641724500785) translate(0 17.22222222222222)"/></g><path d="M-544.25 1740.47h-10.73l-.88.07-.85.2-.8.34-.75.45-.66.56-.57.65-.45.74-.33.8-.2.84-.07.88v67.96l.06.88.2.85.34.8.45.75.56.66.65.57.74.45.8.33.84.2.88.08h17.6v.94h-17.64l-1-.07-.98-.24-.94-.4-.87-.52-.78-.66-.66-.77-.53-.86-.4-.94-.23-1-.08-.98v-68.04l.08-1 .24-.98.4-.94.52-.87.66-.78.77-.66.86-.53.94-.4 1-.23.98-.07h10.77zm139.06-1.87l1 .24.94.4.86.52.77.66.67.77.53.86.38.94.24 1 .07.98v33.52h-.95v-33.48l-.07-.88-.2-.85-.33-.8-.46-.75-.56-.66-.66-.57-.74-.45-.8-.33-.84-.2-.88-.08H-423v-.94h16.8z" stroke="#3a414a" stroke-width=".05" fill="#3a414a"/><path d="M-399.73 1779h-.95v-.5h.95z" fill="#3a414a"/><path stroke="#3a414a" stroke-width=".05" fill="#3a414a"/><path d="M-522.62 1820l-14.26 4.63v-9.27z" fill="#3a414a"/><path d="M-521.08 1820l-16.28 5.3v-10.6zm-15.33 3.98l12.25-3.98-12.26-3.98z" stroke="#3a414a" stroke-width=".05" fill="#3a414a"/><g><use xlink:href="#P" transform="matrix(1,0,0,1,-544.2543745379594,1729.2447916666667) translate(0 17.22222222222222)"/></g><path d="M-260 2020c0 11.05-8.95 20-20 20s-20-8.95-20-20 8.95-20 20-20 20 8.95 20 20z" stroke="#000" stroke-width="2" fill="#fff"/><path d="M-268 2020c0 6.63-5.37 12-12 12s-12-5.37-12-12 5.37-12 12-12 12 5.37 12 12z" stroke="#000" stroke-width="2"/><path d="M-358.5 2020h41.12" stroke="#3a414a" fill="none"/><path d="M-358.5 2020.47h-.5v-.94h.5z" stroke="#3a414a" stroke-width=".05" fill="#3a414a"/><path d="M-302.62 2020l-14.26 4.63v-9.27z" stroke="#3a414a" fill="#3a414a"/><defs><path d="M370-1490V0H180v-1490h190" id="U"/><path d="M338-670V0H158v-1118h173l1 207c72-158 192-221 342-221 226 0 378 139 378 422V0H872v-695c0-172-96-275-252-275-161 0-282 109-282 300" id="V"/><path d="M598-1118v154H368v674c0 100 37 144 132 144 23 0 62-6 92-12L629-6c-37 13-88 20-134 20-193 0-307-107-307-290v-688H20v-154h168v-266h180v266h230" id="W"/><path d="M628 24c-324 0-524-230-524-574 0-343 198-582 503-582 237 0 487 146 487 559v75H286c9 234 145 362 343 362 132 0 231-58 273-172l174 48C1024-91 857 24 628 24zM287-650h624c-17-190-120-322-304-322-192 0-309 151-320 322" id="X"/><path d="M611 442c-248 0-391-105-460-228l146-94c47 65 117 165 314 165 178 0 307-82 307-266v-224h-17C863-141 792-18 576-18c-268 0-472-195-472-546 0-346 197-568 476-568 216 0 288 133 326 193h17v-179h175V29c0 289-215 413-487 413zm-5-620c203 0 314-146 314-390 0-237-108-403-314-403-213 0-319 180-319 403 0 230 109 390 319 390" id="Y"/><path d="M158 0v-1118h174v172h12c41-113 157-188 290-188 26 0 70 2 91 3v181c-11-2-60-10-108-10-161 0-279 109-279 260V0H158" id="Z"/><g id="a"><use transform="matrix(0.010850694444444444,0,0,0.010850694444444444,0,0)" xlink:href="#U"/><use transform="matrix(0.010850694444444444,0,0,0.010850694444444444,5.967881944444445,0)" xlink:href="#V"/><use transform="matrix(0.010850694444444444,0,0,0.010850694444444444,19.09722222222222,0)" xlink:href="#W"/><use transform="matrix(0.010850694444444444,0,0,0.010850694444444444,26.15017361111111,0)" xlink:href="#X"/><use transform="matrix(0.010850694444444444,0,0,0.010850694444444444,39.10590277777778,0)" xlink:href="#Y"/><use transform="matrix(0.010850694444444444,0,0,0.010850694444444444,52.734375,0)" xlink:href="#X"/><use transform="matrix(0.010850694444444444,0,0,0.010850694444444444,65.69010416666667,0)" xlink:href="#Z"/></g><path d="M657 26c-323 0-524-166-541-416h195c15 169 171 246 346 246 202 0 356-106 356-265 5-203-294-238-475-293-239-73-380-191-380-389 0-252 224-419 512-419 294 0 499 171 508 396H992c-17-145-151-228-328-228-193 0-321 102-321 242 0 156 175 211 284 241l149 41c160 44 422 134 422 412 0 244-197 432-541 432" id="aa"/><path d="M471 26C259 26 90-98 90-318c0-256 228-303 435-329 202-27 287-16 287-108 0-139-79-219-234-219-161 0-248 86-283 164l-173-57c86-203 278-265 451-265 150 0 419 46 419 395V0H815v-152h-12C765-73 660 26 471 26zm31-159c199 0 310-134 310-271v-155c-30 35-226 55-295 64-131 17-246 59-246 186 0 116 97 176 231 176" id="ab"/><g id="b"><use transform="matrix(0.010850694444444444,0,0,0.010850694444444444,0,0)" xlink:href="#aa"/><use transform="matrix(0.010850694444444444,0,0,0.010850694444444444,14.2578125,0)" xlink:href="#W"/><use transform="matrix(0.010850694444444444,0,0,0.010850694444444444,21.63628472222222,0)" xlink:href="#ab"/><use transform="matrix(0.010850694444444444,0,0,0.010850694444444444,34.11458333333333,0)" xlink:href="#W"/><use transform="matrix(0.010850694444444444,0,0,0.010850694444444444,41.16753472222222,0)" xlink:href="#X"/></g><path d="M180 0v-1490h901v168H370v510h643v168H370V0H180" id="ac"/><path d="M338-1490V0H158v-1490h180" id="ad"/><path d="M613 24c-304 0-509-231-509-576 0-350 205-580 509-580 305 0 511 230 511 580 0 345-206 576-511 576zm0-161c226 0 329-195 329-415 0-222-103-419-329-419-223 0-326 196-326 419 0 220 103 415 326 415" id="ae"/><path d="M158 0v-1118h180V0H158zm91-1301c-68 0-125-53-125-119s57-119 125-119c69 0 126 53 126 119s-57 119-126 119" id="af"/><g id="c"><use transform="matrix(0.010850694444444444,0,0,0.010850694444444444,0,0)" xlink:href="#ac"/><use transform="matrix(0.010850694444444444,0,0,0.010850694444444444,13.118489583333332,0)" xlink:href="#ad"/><use transform="matrix(0.010850694444444444,0,0,0.010850694444444444,18.50043402777778,0)" xlink:href="#ae"/><use transform="matrix(0.010850694444444444,0,0,0.010850694444444444,32.04210069444444,0)" xlink:href="#ab"/><use transform="matrix(0.010850694444444444,0,0,0.010850694444444444,44.52039930555556,0)" xlink:href="#W"/><use transform="matrix(0.010850694444444444,0,0,0.010850694444444444,51.79036458333333,0)" xlink:href="#af"/><use transform="matrix(0.010850694444444444,0,0,0.010850694444444444,57.17230902777778,0)" xlink:href="#V"/><use transform="matrix(0.010850694444444444,0,0,0.010850694444444444,70.30164930555556,0)" xlink:href="#Y"/></g><path d="M180 0v-1490h510c348 0 508 209 508 474 0 266-160 477-507 477H370V0H180zm190-706h312c236 0 327-133 327-310 0-176-91-307-329-307H370v617" id="ag"/><g id="d"><use transform="matrix(0.010850694444444444,0,0,0.010850694444444444,0,0)" xlink:href="#ag"/><use transform="matrix(0.010850694444444444,0,0,0.010850694444444444,14.073350694444445,0)" xlink:href="#ae"/><use transform="matrix(0.010850694444444444,0,0,0.010850694444444444,27.39800347222222,0)" xlink:href="#af"/><use transform="matrix(0.010850694444444444,0,0,0.010850694444444444,32.779947916666664,0)" xlink:href="#V"/><use transform="matrix(0.010850694444444444,0,0,0.010850694444444444,45.90928819444444,0)" xlink:href="#W"/></g><g id="e"><use transform="matrix(0.010850694444444444,0,0,0.010850694444444444,0,0)" xlink:href="#aa"/><use transform="matrix(0.010850694444444444,0,0,0.010850694444444444,14.2578125,0)" xlink:href="#W"/><use transform="matrix(0.010850694444444444,0,0,0.010850694444444444,21.63628472222222,0)" xlink:href="#ab"/><use transform="matrix(0.010850694444444444,0,0,0.010850694444444444,34.11458333333333,0)" xlink:href="#W"/><use transform="matrix(0.010850694444444444,0,0,0.010850694444444444,41.16753472222222,0)" xlink:href="#X"/></g><path d="M180 0v-1490h528c311 0 458 177 458 395 0 191-114 278-244 313v14c139 9 302 137 302 371 0 225-148 397-499 397H180zm190-168h350c232 0 321-102 321-231 0-149-120-277-311-277H370v508zm0-668h328c160 0 286-101 286-255 0-129-87-231-280-231H370v486" id="ah"/><path d="M140 405l46-156c120 36 205 19 263-150l32-93L54-1118h197c107 313 237 620 324 950 87-331 219-637 326-950h196L606 167c-68 178-176 259-334 259-64 0-113-12-132-21" id="ai"/><g id="f"><use transform="matrix(0.010850694444444444,0,0,0.010850694444444444,0,0)" xlink:href="#ah"/><use transform="matrix(0.010850694444444444,0,0,0.010850694444444444,14.539930555555555,0)" xlink:href="#af"/><use transform="matrix(0.010850694444444444,0,0,0.010850694444444444,19.921875,0)" xlink:href="#V"/><use transform="matrix(0.010850694444444444,0,0,0.010850694444444444,33.05121527777778,0)" xlink:href="#ab"/><use transform="matrix(0.010850694444444444,0,0,0.010850694444444444,45.529513888888886,0)" xlink:href="#Z"/><use transform="matrix(0.010850694444444444,0,0,0.010850694444444444,54.24262152777778,0)" xlink:href="#ai"/></g><path d="M180 0v-1490h908v168H370v486h669v168H370v500h727V0H180" id="aj"/><path d="M158 0v-1118h175l1 205c55-151 181-225 313-225 147 0 245 90 285 228 53-141 190-228 352-228 194 0 352 125 352 384V0h-181v-749c0-161-105-225-225-225-151 0-243 103-243 244V0H807v-767c0-124-93-207-219-207-131 0-250 92-250 270V0H158" id="ak"/><g id="g"><use transform="matrix(0.010850694444444444,0,0,0.010850694444444444,0,0)" xlink:href="#aj"/><use transform="matrix(0.010850694444444444,0,0,0.010850694444444444,13.35720486111111,0)" xlink:href="#ak"/><use transform="matrix(0.010850694444444444,0,0,0.010850694444444444,32.82335069444444,0)" xlink:href="#ab"/><use transform="matrix(0.010850694444444444,0,0,0.010850694444444444,45.30164930555556,0)" xlink:href="#af"/><use transform="matrix(0.010850694444444444,0,0,0.010850694444444444,50.68359375,0)" xlink:href="#ad"/></g><path d="M783 20c-382 0-661-292-661-764 0-473 279-766 661-766 302 0 548 182 601 489h-190c-42-204-217-313-411-313-268 0-476 208-476 590 0 381 209 588 476 588 195 0 369-110 411-313h190c-52 303-296 489-601 489" id="al"/><path d="M158 418v-1536h174v179h20c37-59 106-193 324-193 279 0 474 222 474 576 0 356-194 580-473 580-213 0-288-135-325-197h-14v591H158zm492-555c209 0 317-186 317-421 0-232-105-413-317-413-206 0-314 166-314 413 0 249 111 421 314 421" id="am"/><path d="M65 0l393-574-370-544h210c88 136 192 297 267 435 67-142 176-302 264-435h206L661-564 1053 0H844c-94-144-206-310-287-458C484-308 366-142 273 0H65" id="an"/><g id="h"><use transform="matrix(0.010850694444444444,0,0,0.010850694444444444,0,0)" xlink:href="#al"/><use transform="matrix(0.010850694444444444,0,0,0.010850694444444444,16.23263888888889,0)" xlink:href="#ae"/><use transform="matrix(0.010850694444444444,0,0,0.010850694444444444,29.557291666666664,0)" xlink:href="#ak"/><use transform="matrix(0.010850694444444444,0,0,0.010850694444444444,49.0234375,0)" xlink:href="#am"/><use transform="matrix(0.010850694444444444,0,0,0.010850694444444444,62.63020833333333,0)" xlink:href="#ad"/><use transform="matrix(0.010850694444444444,0,0,0.010850694444444444,68.01215277777777,0)" xlink:href="#X"/><use transform="matrix(0.010850694444444444,0,0,0.010850694444444444,80.46875,0)" xlink:href="#an"/></g><path d="M538 24C308 24 148-78 108-271l171-41c32 123 123 178 257 178 156 0 256-77 256-169 0-77-54-128-164-154l-186-44c-203-48-300-148-300-305 0-192 176-326 414-326 230 0 351 112 402 269l-163 42c-31-80-94-158-238-158-133 0-233 69-233 162 0 83 57 129 188 160l169 40c203 48 298 149 298 302 0 196-179 339-441 339" id="ao"/><path d="M409 0L70-1118h191c89 329 165 560 243 925 75-353 154-601 240-925h192c85 325 161 564 235 922 77-354 157-598 244-922h191L1267 0h-179c-86-307-176-590-250-913C763-588 675-308 588 0H409" id="ap"/><path d="M577 24c-279 0-473-224-473-580 0-354 195-576 474-576 218 0 287 134 324 193h14v-551h180V0H922v-173h-20C865-111 790 24 577 24zm27-161c203 0 314-172 314-421 0-247-108-413-314-413-212 0-317 181-317 413 0 235 108 421 317 421" id="aq"/><g id="i"><use transform="matrix(0.010850694444444444,0,0,0.010850694444444444,0,0)" xlink:href="#ag"/><use transform="matrix(0.010850694444444444,0,0,0.010850694444444444,14.192708333333332,0)" xlink:href="#ab"/><use transform="matrix(0.010850694444444444,0,0,0.010850694444444444,26.671006944444443,0)" xlink:href="#ao"/><use transform="matrix(0.010850694444444444,0,0,0.010850694444444444,38.400607638888886,0)" xlink:href="#ao"/><use transform="matrix(0.010850694444444444,0,0,0.010850694444444444,50.13020833333333,0)" xlink:href="#ap"/><use transform="matrix(0.010850694444444444,0,0,0.010850694444444444,67.91449652777777,0)" xlink:href="#ae"/><use transform="matrix(0.010850694444444444,0,0,0.010850694444444444,81.23914930555554,0)" xlink:href="#Z"/><use transform="matrix(0.010850694444444444,0,0,0.010850694444444444,89.23611111111111,0)" xlink:href="#aq"/></g><path d="M600 0L52-1490h200c166 485 304 806 458 1336 156-533 285-846 449-1336h202L819 0H600" id="ar"/><g id="j"><use transform="matrix(0.010850694444444444,0,0,0.010850694444444444,0,0)" xlink:href="#ar"/><use transform="matrix(0.010850694444444444,0,0,0.010850694444444444,14.20355902777778,0)" xlink:href="#ab"/><use transform="matrix(0.010850694444444444,0,0,0.010850694444444444,26.68185763888889,0)" xlink:href="#ad"/><use transform="matrix(0.010850694444444444,0,0,0.010850694444444444,32.063802083333336,0)" xlink:href="#af"/><use transform="matrix(0.010850694444444444,0,0,0.010850694444444444,37.44574652777778,0)" xlink:href="#aq"/><use transform="matrix(0.010850694444444444,0,0,0.010850694444444444,51.05251736111112,0)" xlink:href="#U"/><use transform="matrix(0.010850694444444444,0,0,0.010850694444444444,57.02039930555555,0)" xlink:href="#V"/><use transform="matrix(0.010850694444444444,0,0,0.010850694444444444,70.14973958333333,0)" xlink:href="#W"/><use transform="matrix(0.010850694444444444,0,0,0.010850694444444444,77.20269097222221,0)" xlink:href="#X"/><use transform="matrix(0.010850694444444444,0,0,0.010850694444444444,90.15842013888889,0)" xlink:href="#Y"/><use transform="matrix(0.010850694444444444,0,0,0.010850694444444444,103.78689236111111,0)" xlink:href="#X"/><use transform="matrix(0.010850694444444444,0,0,0.010850694444444444,116.7426215277778,0)" xlink:href="#Z"/></g><path fill="#333" d="M749-1490V0H444v-1221h-10L93-980v-279l329-231h327" id="as"/><path fill="#333" d="M818-733v240H140v-240h678" id="at"/><path fill="#333" d="M636 22c-294 0-497-190-527-437h302c24 106 107 174 225 174 196 0 302-184 302-479h-10c-68 129-211 209-374 209-265 0-460-202-460-482 0-301 224-521 555-519 300 2 588 186 588 731 0 502-235 803-601 803zm11-757c147 0 260-121 260-268 0-144-109-265-258-265-147 0-258 117-258 267 0 151 108 266 256 266" id="au"/><g id="k"><use transform="matrix(0.008680555555555556,0,0,0.008680555555555556,0,0)" xlink:href="#as"/><use transform="matrix(0.008680555555555556,0,0,0.008680555555555556,7.664930555555556,0)" xlink:href="#at"/><use transform="matrix(0.008680555555555556,0,0,0.008680555555555556,15.980902777777779,0)" xlink:href="#au"/></g><path fill="#333" d="M690 20C314 20 94-261 94-744c0-482 221-766 596-766 376 0 597 284 597 766 0 483-219 764-597 764zm0-253c184 0 286-184 286-511 0-328-102-514-286-514-183 0-285 187-285 514s101 511 285 511" id="av"/><g id="l"><use transform="matrix(0.008680555555555556,0,0,0.008680555555555556,0,0)" xlink:href="#av"/><use transform="matrix(0.008680555555555556,0,0,0.008680555555555556,11.987847222222223,0)" xlink:href="#at"/><use transform="matrix(0.008680555555555556,0,0,0.008680555555555556,20.303819444444446,0)" xlink:href="#au"/></g><path d="M645 0H180v-1490h484c435 0 692 280 692 742 0 466-257 748-711 748zM370-168h263c363 0 539-218 539-580 0-358-176-574-521-574H370v1154" id="aw"/><path d="M613 24c-304 0-509-231-509-576 0-350 205-580 509-580 216 0 392 114 453 309l-173 49c-33-115-133-197-280-197-223 0-326 196-326 419 0 220 103 415 326 415 150 0 252-85 285-206l172 49C1010-95 832 24 613 24" id="ax"/><g id="m"><use transform="matrix(0.010850694444444444,0,0,0.010850694444444444,0,0)" xlink:href="#ag"/><use transform="matrix(0.010850694444444444,0,0,0.010850694444444444,14.192708333333332,0)" xlink:href="#Z"/><use transform="matrix(0.010850694444444444,0,0,0.010850694444444444,22.189670138888886,0)" xlink:href="#X"/><use transform="matrix(0.010850694444444444,0,0,0.010850694444444444,35.14539930555555,0)" xlink:href="#aw"/><use transform="matrix(0.010850694444444444,0,0,0.010850694444444444,51.18272569444444,0)" xlink:href="#X"/><use transform="matrix(0.010850694444444444,0,0,0.010850694444444444,64.13845486111111,0)" xlink:href="#ax"/><use transform="matrix(0.010850694444444444,0,0,0.010850694444444444,76.83376736111111,0)" xlink:href="#af"/><use transform="matrix(0.010850694444444444,0,0,0.010850694444444444,82.21571180555556,0)" xlink:href="#ak"/><use transform="matrix(0.010850694444444444,0,0,0.010850694444444444,101.68185763888889,0)" xlink:href="#ab"/><use transform="matrix(0.010850694444444444,0,0,0.010850694444444444,114.16015625,0)" xlink:href="#ad"/></g><g id="n"><use transform="matrix(0.008680555555555556,0,0,0.008680555555555556,0,0)" xlink:href="#as"/><use transform="matrix(0.008680555555555556,0,0,0.008680555555555556,7.664930555555556,0)" xlink:href="#at"/><use transform="matrix(0.008680555555555556,0,0,0.008680555555555556,15.980902777777779,0)" xlink:href="#au"/></g><path d="M180 0v-1490h190v1322h690V0H180" id="ay"/><path d="M130 0v-134l666-991c45-67 96-135 147-202-269 9-546 3-821 5v-168h1036v136L502-379c-49 72-103 145-157 216 268-9 546-3 821-5V0H130" id="az"/><g id="o"><use transform="matrix(0.010850694444444444,0,0,0.010850694444444444,0,0)" xlink:href="#ay"/><use transform="matrix(0.010850694444444444,0,0,0.010850694444444444,12.565104166666666,0)" xlink:href="#X"/><use transform="matrix(0.010850694444444444,0,0,0.010850694444444444,25.73784722222222,0)" xlink:href="#ab"/><use transform="matrix(0.010850694444444444,0,0,0.010850694444444444,38.21614583333333,0)" xlink:href="#aq"/><use transform="matrix(0.010850694444444444,0,0,0.010850694444444444,51.82291666666666,0)" xlink:href="#af"/><use transform="matrix(0.010850694444444444,0,0,0.010850694444444444,57.2048611111111,0)" xlink:href="#V"/><use transform="matrix(0.010850694444444444,0,0,0.010850694444444444,70.33420138888887,0)" xlink:href="#Y"/><use transform="matrix(0.010850694444444444,0,0,0.010850694444444444,83.96267361111109,0)" xlink:href="#az"/><use transform="matrix(0.010850694444444444,0,0,0.010850694444444444,97.93836805555553,0)" xlink:href="#X"/><use transform="matrix(0.010850694444444444,0,0,0.010850694444444444,110.8940972222222,0)" xlink:href="#Z"/><use transform="matrix(0.010850694444444444,0,0,0.010850694444444444,118.89105902777776,0)" xlink:href="#ae"/></g><use transform="matrix(0.008680555555555556,0,0,0.008680555555555556,0,0)" xlink:href="#av" id="p"/><g id="q"><use transform="matrix(0.010850694444444444,0,0,0.010850694444444444,0,0)" xlink:href="#aw"/><use transform="matrix(0.010850694444444444,0,0,0.010850694444444444,16.03732638888889,0)" xlink:href="#X"/><use transform="matrix(0.010850694444444444,0,0,0.010850694444444444,28.99305555555556,0)" xlink:href="#ax"/><use transform="matrix(0.010850694444444444,0,0,0.010850694444444444,41.68836805555556,0)" xlink:href="#af"/><use transform="matrix(0.010850694444444444,0,0,0.010850694444444444,47.0703125,0)" xlink:href="#ak"/><use transform="matrix(0.010850694444444444,0,0,0.010850694444444444,66.53645833333333,0)" xlink:href="#ab"/><use transform="matrix(0.010850694444444444,0,0,0.010850694444444444,79.01475694444444,0)" xlink:href="#ad"/><use transform="matrix(0.010850694444444444,0,0,0.010850694444444444,84.39670138888889,0)" xlink:href="#ag"/><use transform="matrix(0.010850694444444444,0,0,0.010850694444444444,98.47005208333333,0)" xlink:href="#ae"/><use transform="matrix(0.010850694444444444,0,0,0.010850694444444444,111.7947048611111,0)" xlink:href="#af"/><use transform="matrix(0.010850694444444444,0,0,0.010850694444444444,117.17664930555556,0)" xlink:href="#V"/><use transform="matrix(0.010850694444444444,0,0,0.010850694444444444,130.30598958333331,0)" xlink:href="#W"/></g><path fill="#333" d="M233-870l-31-620h289l-30 620H233zm435 0l-30-620h289l-30 620H668" id="aA"/><path fill="#333" d="M342 19c-98 0-173-75-173-172s75-172 173-172 173 75 173 172S440 19 342 19" id="aB"/><g id="r"><use transform="matrix(0.008680555555555556,0,0,0.008680555555555556,0,0)" xlink:href="#aA"/><use transform="matrix(0.008680555555555556,0,0,0.008680555555555556,8.211805555555557,0)" xlink:href="#aB"/><use transform="matrix(0.008680555555555556,0,0,0.008680555555555556,12.387152777777779,0)" xlink:href="#aA"/></g><g id="s"><use transform="matrix(0.008680555555555556,0,0,0.008680555555555556,0,0)" xlink:href="#av"/><use transform="matrix(0.008680555555555556,0,0,0.008680555555555556,11.987847222222223,0)" xlink:href="#at"/><use transform="matrix(0.008680555555555556,0,0,0.008680555555555556,20.303819444444446,0)" xlink:href="#au"/></g><g id="t"><use transform="matrix(0.010850694444444444,0,0,0.010850694444444444,0,0)" xlink:href="#ag"/><use transform="matrix(0.010850694444444444,0,0,0.010850694444444444,14.073350694444445,0)" xlink:href="#ae"/><use transform="matrix(0.010850694444444444,0,0,0.010850694444444444,27.39800347222222,0)" xlink:href="#ao"/><use transform="matrix(0.010850694444444444,0,0,0.010850694444444444,39.127604166666664,0)" xlink:href="#W"/><use transform="matrix(0.010850694444444444,0,0,0.010850694444444444,46.39756944444444,0)" xlink:href="#aw"/><use transform="matrix(0.010850694444444444,0,0,0.010850694444444444,62.43489583333333,0)" xlink:href="#X"/><use transform="matrix(0.010850694444444444,0,0,0.010850694444444444,75.390625,0)" xlink:href="#ax"/><use transform="matrix(0.010850694444444444,0,0,0.010850694444444444,88.0859375,0)" xlink:href="#af"/><use transform="matrix(0.010850694444444444,0,0,0.010850694444444444,93.46788194444444,0)" xlink:href="#ak"/><use transform="matrix(0.010850694444444444,0,0,0.010850694444444444,112.93402777777777,0)" xlink:href="#ab"/><use transform="matrix(0.010850694444444444,0,0,0.010850694444444444,125.41232638888889,0)" xlink:href="#ad"/></g><use transform="matrix(0.008680555555555556,0,0,0.008680555555555556,0,0)" xlink:href="#as" id="u"/><g id="v"><use transform="matrix(0.010850694444444444,0,0,0.010850694444444444,0,0)" xlink:href="#U"/><use transform="matrix(0.010850694444444444,0,0,0.010850694444444444,5.967881944444445,0)" xlink:href="#V"/><use transform="matrix(0.010850694444444444,0,0,0.010850694444444444,19.09722222222222,0)" xlink:href="#W"/><use transform="matrix(0.010850694444444444,0,0,0.010850694444444444,26.15017361111111,0)" xlink:href="#X"/><use transform="matrix(0.010850694444444444,0,0,0.010850694444444444,39.10590277777778,0)" xlink:href="#Z"/><use transform="matrix(0.010850694444444444,0,0,0.010850694444444444,47.819010416666664,0)" xlink:href="#V"/><use transform="matrix(0.010850694444444444,0,0,0.010850694444444444,60.94835069444444,0)" xlink:href="#ab"/><use transform="matrix(0.010850694444444444,0,0,0.010850694444444444,73.42664930555556,0)" xlink:href="#ad"/><use transform="matrix(0.010850694444444444,0,0,0.010850694444444444,78.80859375,0)" xlink:href="#ah"/><use transform="matrix(0.010850694444444444,0,0,0.010850694444444444,93.34852430555556,0)" xlink:href="#af"/><use transform="matrix(0.010850694444444444,0,0,0.010850694444444444,98.73046875,0)" xlink:href="#V"/><use transform="matrix(0.010850694444444444,0,0,0.010850694444444444,111.85980902777777,0)" xlink:href="#ab"/><use transform="matrix(0.010850694444444444,0,0,0.010850694444444444,124.33810763888889,0)" xlink:href="#Z"/><use transform="matrix(0.010850694444444444,0,0,0.010850694444444444,133.05121527777777,0)" xlink:href="#ai"/></g><path d="M98-1322v-168h1126v168H757V0H567v-1322H98" id="aC"/><path d="M784 20c-382 0-662-292-662-764 0-473 280-766 662-766s660 293 660 766c0 472-278 764-660 764zm0-176c266 0 475-207 475-588 0-383-209-590-475-590-268 0-477 208-477 590 0 380 209 588 477 588" id="aD"/><g id="w"><use transform="matrix(0.010850694444444444,0,0,0.010850694444444444,0,0)" xlink:href="#aC"/><use transform="matrix(0.010850694444444444,0,0,0.010850694444444444,13.0859375,0)" xlink:href="#Z"/><use transform="matrix(0.010850694444444444,0,0,0.010850694444444444,21.451822916666664,0)" xlink:href="#ab"/><use transform="matrix(0.010850694444444444,0,0,0.010850694444444444,33.93012152777777,0)" xlink:href="#af"/><use transform="matrix(0.010850694444444444,0,0,0.010850694444444444,39.312065972222214,0)" xlink:href="#ad"/><use transform="matrix(0.010850694444444444,0,0,0.010850694444444444,44.69401041666666,0)" xlink:href="#af"/><use transform="matrix(0.010850694444444444,0,0,0.010850694444444444,50.0759548611111,0)" xlink:href="#V"/><use transform="matrix(0.010850694444444444,0,0,0.010850694444444444,63.20529513888888,0)" xlink:href="#Y"/><use transform="matrix(0.010850694444444444,0,0,0.010850694444444444,76.8337673611111,0)" xlink:href="#aD"/><use transform="matrix(0.010850694444444444,0,0,0.010850694444444444,93.82595486111111,0)" xlink:href="#V"/><use transform="matrix(0.010850694444444444,0,0,0.010850694444444444,106.95529513888887,0)" xlink:href="#X"/></g><use transform="matrix(0.008680555555555556,0,0,0.008680555555555556,0,0)" xlink:href="#av" id="x"/><path d="M428-647V0H128v-1118h283l4 231c63-156 176-245 348-245 232 0 384 159 384 421V0H847v-659c0-139-76-222-202-222-128 0-217 86-217 234" id="aE"/><path d="M628 22C291 22 81-210 81-554c0-346 210-578 547-578 336 0 547 232 547 578 0 344-211 576-547 576zm0-236c160 0 242-146 242-341 0-197-82-341-242-341S387-753 387-555c0 195 81 341 241 341" id="aF"/><path d="M683-1118v229H474v562c0 71 29 104 102 104 23 0 73-7 95-13l43 225C647 9 580 16 520 16 296 16 174-96 174-301v-588H20v-229h154v-266h300v266h209" id="aG"/><g id="y"><use transform="matrix(0.008680555555555556,0,0,0.008680555555555556,0,0)" xlink:href="#aE"/><use transform="matrix(0.008680555555555556,0,0,0.008680555555555556,11.067708333333334,0)" xlink:href="#aF"/><use transform="matrix(0.008680555555555556,0,0,0.008680555555555556,21.970486111111114,0)" xlink:href="#aG"/></g><path d="M1062 428C449 428 94 84 94-516c0-575 340-963 960-963 578 0 933 368 933 858 0 333-116 594-414 594-130 0-250-51-269-167h-8C1259-94 1151-26 994-26c-274 0-430-202-430-500 0-295 177-499 436-499 130 0 229 52 268 125h11v-102h206v675c0 64 28 104 90 104 126 0 169-118 169-378 0-390-224-650-672-650-472 0-725 272-725 729 0 465 257 720 738 720 163 0 314-42 397-77l79 208c-100 48-293 99-499 99zm-40-667c165 0 244-100 244-291 0-192-85-268-241-268-152 0-239 109-239 267 0 168 75 292 236 292" id="aH"/><use transform="matrix(0.008680555555555556,0,0,0.008680555555555556,0,0)" xlink:href="#aH" id="z"/><path d="M128 0v-1118h290v195h12c54-169 184-238 367-200v268c-27-8-86-15-130-15-138 0-239 95-239 234V0H128" id="aI"/><g id="A"><use transform="matrix(0.008680555555555556,0,0,0.008680555555555556,0,0)" xlink:href="#aF"/><use transform="matrix(0.008680555555555556,0,0,0.008680555555555556,10.902777777777779,0)" xlink:href="#aI"/></g><path d="M233-870l-31-620h289l-30 620H233zm435 0l-30-620h289l-30 620H668" id="aJ"/><path d="M342 19c-98 0-173-75-173-172s75-172 173-172 173 75 173 172S440 19 342 19" id="aK"/><g id="B"><use transform="matrix(0.008680555555555556,0,0,0.008680555555555556,0,0)" xlink:href="#aJ"/><use transform="matrix(0.008680555555555556,0,0,0.008680555555555556,8.211805555555557,0)" xlink:href="#aK"/><use transform="matrix(0.008680555555555556,0,0,0.008680555555555556,12.387152777777779,0)" xlink:href="#aJ"/></g><g id="C"><use transform="matrix(0.010850694444444444,0,0,0.010850694444444444,0,0)" xlink:href="#ag"/><use transform="matrix(0.010850694444444444,0,0,0.010850694444444444,14.192708333333332,0)" xlink:href="#ab"/><use transform="matrix(0.010850694444444444,0,0,0.010850694444444444,26.671006944444443,0)" xlink:href="#Z"/><use transform="matrix(0.010850694444444444,0,0,0.010850694444444444,35.38411458333333,0)" xlink:href="#W"/><use transform="matrix(0.010850694444444444,0,0,0.010850694444444444,42.65407986111111,0)" xlink:href="#aD"/><use transform="matrix(0.010850694444444444,0,0,0.010850694444444444,59.64626736111111,0)" xlink:href="#V"/><use transform="matrix(0.010850694444444444,0,0,0.010850694444444444,72.77560763888889,0)" xlink:href="#X"/></g><path fill="#333" d="M428-647V0H128v-1118h283l4 231c63-156 176-245 348-245 232 0 384 159 384 421V0H847v-659c0-139-76-222-202-222-128 0-217 86-217 234" id="aL"/><path fill="#333" d="M628 22C291 22 81-210 81-554c0-346 210-578 547-578 336 0 547 232 547 578 0 344-211 576-547 576zm0-236c160 0 242-146 242-341 0-197-82-341-242-341S387-753 387-555c0 195 81 341 241 341" id="aM"/><path fill="#333" d="M683-1118v229H474v562c0 71 29 104 102 104 23 0 73-7 95-13l43 225C647 9 580 16 520 16 296 16 174-96 174-301v-588H20v-229h154v-266h300v266h209" id="aN"/><g id="D"><use transform="matrix(0.008680555555555556,0,0,0.008680555555555556,0,0)" xlink:href="#aL"/><use transform="matrix(0.008680555555555556,0,0,0.008680555555555556,11.067708333333334,0)" xlink:href="#aM"/><use transform="matrix(0.008680555555555556,0,0,0.008680555555555556,21.970486111111114,0)" xlink:href="#aN"/></g><g id="E"><use transform="matrix(0.008680555555555556,0,0,0.008680555555555556,0,0)" xlink:href="#aA"/><use transform="matrix(0.008680555555555556,0,0,0.008680555555555556,8.211805555555557,0)" xlink:href="#aB"/><use transform="matrix(0.008680555555555556,0,0,0.008680555555555556,12.387152777777779,0)" xlink:href="#aA"/></g><path d="M52 0l541-1490h220L1361 0h-200l-149-416H398L254 0H52zm404-582h497c-103-290-145-390-251-756-108 377-145 460-246 756" id="aO"/><path d="M677 24c-213 0-288-135-325-197h-20V0H158v-1490h180v551h14c37-59 106-193 324-193 279 0 474 222 474 576 0 356-194 580-473 580zm-27-161c209 0 317-186 317-421 0-232-105-413-317-413-206 0-314 166-314 413 0 249 111 421 314 421" id="aP"/><g id="F"><use transform="matrix(0.010850694444444444,0,0,0.010850694444444444,0,0)" xlink:href="#aO"/><use transform="matrix(0.010850694444444444,0,0,0.010850694444444444,14.898003472222221,0)" xlink:href="#W"/><use transform="matrix(0.010850694444444444,0,0,0.010850694444444444,22.16796875,0)" xlink:href="#aa"/><use transform="matrix(0.010850694444444444,0,0,0.010850694444444444,36.42578125,0)" xlink:href="#ai"/><use transform="matrix(0.010850694444444444,0,0,0.010850694444444444,48.91493055555556,0)" xlink:href="#ak"/><use transform="matrix(0.010850694444444444,0,0,0.010850694444444444,68.38107638888889,0)" xlink:href="#aP"/><use transform="matrix(0.010850694444444444,0,0,0.010850694444444444,81.98784722222221,0)" xlink:href="#ae"/><use transform="matrix(0.010850694444444444,0,0,0.010850694444444444,95.31249999999997,0)" xlink:href="#ad"/></g><path fill="#333" d="M1062 428C449 428 94 84 94-516c0-575 340-963 960-963 578 0 933 368 933 858 0 333-116 594-414 594-130 0-250-51-269-167h-8C1259-94 1151-26 994-26c-274 0-430-202-430-500 0-295 177-499 436-499 130 0 229 52 268 125h11v-102h206v675c0 64 28 104 90 104 126 0 169-118 169-378 0-390-224-650-672-650-472 0-725 272-725 729 0 465 257 720 738 720 163 0 314-42 397-77l79 208c-100 48-293 99-499 99zm-40-667c165 0 244-100 244-291 0-192-85-268-241-268-152 0-239 109-239 267 0 168 75 292 236 292" id="aQ"/><use transform="matrix(0.008680555555555556,0,0,0.008680555555555556,0,0)" xlink:href="#aQ" id="G"/><g id="H"><use transform="matrix(0.010850694444444444,0,0,0.010850694444444444,0,0)" xlink:href="#ag"/><use transform="matrix(0.010850694444444444,0,0,0.010850694444444444,14.192708333333332,0)" xlink:href="#ab"/><use transform="matrix(0.010850694444444444,0,0,0.010850694444444444,26.671006944444443,0)" xlink:href="#Z"/><use transform="matrix(0.010850694444444444,0,0,0.010850694444444444,35.38411458333333,0)" xlink:href="#W"/><use transform="matrix(0.010850694444444444,0,0,0.010850694444444444,41.90538194444444,0)" xlink:href="#aC"/><use transform="matrix(0.010850694444444444,0,0,0.010850694444444444,54.86111111111112,0)" xlink:href="#ap"/><use transform="matrix(0.010850694444444444,0,0,0.010850694444444444,72.64539930555556,0)" xlink:href="#ae"/></g><use transform="matrix(0.008680555555555556,0,0,0.008680555555555556,0,0)" xlink:href="#aH" id="I"/><g id="J"><use transform="matrix(0.010850694444444444,0,0,0.010850694444444444,0,0)" xlink:href="#ag"/><use transform="matrix(0.010850694444444444,0,0,0.010850694444444444,14.073350694444445,0)" xlink:href="#X"/><use transform="matrix(0.010850694444444444,0,0,0.010850694444444444,27.029079861111104,0)" xlink:href="#Z"/><use transform="matrix(0.010850694444444444,0,0,0.010850694444444444,35.74218749999999,0)" xlink:href="#af"/><use transform="matrix(0.010850694444444444,0,0,0.010850694444444444,41.124131944444436,0)" xlink:href="#ae"/><use transform="matrix(0.010850694444444444,0,0,0.010850694444444444,54.44878472222221,0)" xlink:href="#aq"/><use transform="matrix(0.010850694444444444,0,0,0.010850694444444444,68.05555555555554,0)" xlink:href="#aa"/><use transform="matrix(0.010850694444444444,0,0,0.010850694444444444,82.31336805555554,0)" xlink:href="#ai"/><use transform="matrix(0.010850694444444444,0,0,0.010850694444444444,94.80251736111111,0)" xlink:href="#ak"/><use transform="matrix(0.010850694444444444,0,0,0.010850694444444444,114.26866319444441,0)" xlink:href="#aP"/><use transform="matrix(0.010850694444444444,0,0,0.010850694444444444,127.87543402777776,0)" xlink:href="#ae"/><use transform="matrix(0.010850694444444444,0,0,0.010850694444444444,141.20008680555554,0)" xlink:href="#ad"/></g><g id="K"><use transform="matrix(0.008680555555555556,0,0,0.008680555555555556,0,0)" xlink:href="#aA"/><use transform="matrix(0.008680555555555556,0,0,0.008680555555555556,8.211805555555557,0)" xlink:href="#aB"/><use transform="matrix(0.008680555555555556,0,0,0.008680555555555556,12.387152777777779,0)" xlink:href="#aA"/></g><path d="M338-670V0H158v-1490h180v566c73-149 190-208 336-208 226 0 379 139 379 422V0H872v-695c0-172-96-275-252-275-161 0-282 109-282 300" id="aR"/><g id="L"><use transform="matrix(0.010850694444444444,0,0,0.010850694444444444,0,0)" xlink:href="#ag"/><use transform="matrix(0.010850694444444444,0,0,0.010850694444444444,14.192708333333332,0)" xlink:href="#ab"/><use transform="matrix(0.010850694444444444,0,0,0.010850694444444444,26.671006944444443,0)" xlink:href="#Z"/><use transform="matrix(0.010850694444444444,0,0,0.010850694444444444,35.38411458333333,0)" xlink:href="#W"/><use transform="matrix(0.010850694444444444,0,0,0.010850694444444444,41.90538194444444,0)" xlink:href="#aC"/><use transform="matrix(0.010850694444444444,0,0,0.010850694444444444,56.25,0)" xlink:href="#aR"/><use transform="matrix(0.010850694444444444,0,0,0.010850694444444444,69.39019097222223,0)" xlink:href="#Z"/><use transform="matrix(0.010850694444444444,0,0,0.010850694444444444,77.38715277777779,0)" xlink:href="#X"/><use transform="matrix(0.010850694444444444,0,0,0.010850694444444444,90.34288194444446,0)" xlink:href="#X"/></g><path fill="#333" d="M428-647V0H128v-1490h294v586c65-146 175-228 341-228 232 0 385 159 385 421V0H847v-659c0-139-76-222-202-222-128 0-217 86-217 234" id="aS"/><path fill="#333" d="M633 22C291 22 81-200 81-553c0-345 210-579 537-579 292 0 525 185 525 567v84H378c7 183 109 277 260 277 105 0 184-46 216-132l272 51C1071-99 893 22 633 22zM380-669h474c-15-146-94-237-233-237-143 0-229 99-241 237" id="aT"/><path fill="#333" d="M128 0v-1118h290v195h12c54-169 184-238 367-200v268c-27-8-86-15-130-15-138 0-239 95-239 234V0H128" id="aU"/><g id="M"><use transform="matrix(0.008680555555555556,0,0,0.008680555555555556,0,0)" xlink:href="#aM"/><use transform="matrix(0.008680555555555556,0,0,0.008680555555555556,10.902777777777779,0)" xlink:href="#aN"/><use transform="matrix(0.008680555555555556,0,0,0.008680555555555556,17.456597222222225,0)" xlink:href="#aS"/><use transform="matrix(0.008680555555555556,0,0,0.008680555555555556,28.524305555555557,0)" xlink:href="#aT"/><use transform="matrix(0.008680555555555556,0,0,0.008680555555555556,39.114583333333336,0)" xlink:href="#aU"/></g><g id="N"><use transform="matrix(0.010850694444444444,0,0,0.010850694444444444,0,0)" xlink:href="#aa"/><use transform="matrix(0.010850694444444444,0,0,0.010850694444444444,14.2578125,0)" xlink:href="#af"/><use transform="matrix(0.010850694444444444,0,0,0.010850694444444444,19.639756944444443,0)" xlink:href="#ak"/><use transform="matrix(0.010850694444444444,0,0,0.010850694444444444,39.10590277777777,0)" xlink:href="#am"/><use transform="matrix(0.010850694444444444,0,0,0.010850694444444444,52.7126736111111,0)" xlink:href="#ad"/><use transform="matrix(0.010850694444444444,0,0,0.010850694444444444,58.09461805555554,0)" xlink:href="#X"/></g><g id="O"><use transform="matrix(0.010850694444444444,0,0,0.010850694444444444,0,0)" xlink:href="#aa"/><use transform="matrix(0.010850694444444444,0,0,0.010850694444444444,14.2578125,0)" xlink:href="#am"/><use transform="matrix(0.010850694444444444,0,0,0.010850694444444444,27.864583333333332,0)" xlink:href="#X"/><use transform="matrix(0.010850694444444444,0,0,0.010850694444444444,40.8203125,0)" xlink:href="#ax"/><use transform="matrix(0.010850694444444444,0,0,0.010850694444444444,53.515625,0)" xlink:href="#af"/><use transform="matrix(0.010850694444444444,0,0,0.010850694444444444,58.89756944444444,0)" xlink:href="#ab"/><use transform="matrix(0.010850694444444444,0,0,0.010850694444444444,71.37586805555556,0)" xlink:href="#ad"/><use transform="matrix(0.010850694444444444,0,0,0.010850694444444444,76.7578125,0)" xlink:href="#al"/><use transform="matrix(0.010850694444444444,0,0,0.010850694444444444,92.99045138888889,0)" xlink:href="#aR"/><use transform="matrix(0.010850694444444444,0,0,0.010850694444444444,106.13064236111111,0)" xlink:href="#ab"/><use transform="matrix(0.010850694444444444,0,0,0.010850694444444444,118.60894097222224,0)" xlink:href="#Z"/></g><path d="M206-472l-22-1018h323L485-472H206zM346 19c-104 0-177-69-177-169 0-101 73-170 177-170 105 0 178 69 178 170 0 100-73 169-178 169" id="aV"/><path d="M119 395l88-620h300L323 395H119" id="aW"/><path d="M690 0l61-373H455L394 0H167l61-373H22l39-226h204l48-291H108l38-227h204l61-373h227l-61 373h297l61-373h227l-61 373h205l-38 227h-205l-47 291h205l-39 226H978L917 0H690zM492-599h296l48-291H540" id="aX"/><path d="M620 201V20C297 2 93-164 85-462h297c9 133 104 207 238 223v-394l-92-23c-252-61-403-188-403-405 0-251 205-424 495-447v-183h120v183c299 19 491 196 496 443H941c-10-104-83-169-201-185v373c274 53 520 177 516 453 0 256-190 426-516 444v181H620zm120-441c128-17 209-88 209-186 0-92-76-139-209-176v362zM620-908v-341c-117 17-182 83-182 168 0 94 80 142 182 173" id="aY"/><path d="M1569 26c-212 0-325-151-325-328v-78c0-179 118-329 325-329 213 0 325 150 325 329v78c0 179-115 328-325 328zM511-779c-212 0-325-151-325-328v-78c0-179 118-329 325-329 213 0 325 150 325 329v78c0 179-115 328-325 328zM419 0l1024-1490h207L626 0H419zm92-962c119-5 116-109 116-223 0-72-24-147-116-147-117 0-117 111-117 225 0 73 29 145 117 145zm1058 805c120-5 116-109 116-223 0-72-23-147-116-147-117 0-116 111-116 225 0 73 28 145 116 145" id="aZ"/><path d="M579 22C270 22 81-162 81-393c0-177 110-281 274-393-80-101-143-210-143-345 0-213 160-377 403-377 238 0 385 158 385 351 0 138-76 251-198 340l-89 64 251 289c39-73 63-161 63-258h251c0 203-53 358-134 465L1367 0h-316l-91-101C852-17 708 22 579 22zm-69-628c-83 57-139 119-136 201 0 113 86 185 214 185 72 0 145-22 210-63zm56-319c74-50 193-114 190-218 0-69-50-123-139-123s-146 55-146 138c0 67 36 129 95 203" id="ba"/><path d="M476-652l19-284-238 159-97-168 257-125-257-125 97-170 238 159-19-284h192l-18 284 238-159 95 170-255 125 255 125-95 168-238-159 18 284H476" id="bb"/><g id="P"><use transform="matrix(0.008680555555555556,0,0,0.008680555555555556,0,0)" xlink:href="#aV"/><use transform="matrix(0.008680555555555556,0,0,0.008680555555555556,6.006944444444445,0)" xlink:href="#aW"/><use transform="matrix(0.008680555555555556,0,0,0.008680555555555556,11.163194444444445,0)" xlink:href="#aH"/><use transform="matrix(0.008680555555555556,0,0,0.008680555555555556,28.446180555555557,0)" xlink:href="#aW"/><use transform="matrix(0.008680555555555556,0,0,0.008680555555555556,34.38368055555556,0)" xlink:href="#aX"/><use transform="matrix(0.008680555555555556,0,0,0.008680555555555556,45.92013888888889,0)" xlink:href="#aW"/><use transform="matrix(0.008680555555555556,0,0,0.008680555555555556,51.85763888888889,0)" xlink:href="#aY"/><use transform="matrix(0.008680555555555556,0,0,0.008680555555555556,63.49826388888889,0)" xlink:href="#aW"/><use transform="matrix(0.008680555555555556,0,0,0.008680555555555556,69.43576388888889,0)" xlink:href="#aZ"/><use transform="matrix(0.008680555555555556,0,0,0.008680555555555556,87.49131944444444,0)" xlink:href="#aW"/><use transform="matrix(0.008680555555555556,0,0,0.008680555555555556,93.42881944444444,0)" xlink:href="#ba"/><use transform="matrix(0.008680555555555556,0,0,0.008680555555555556,105.3732638888889,0)" xlink:href="#aW"/><use transform="matrix(0.008680555555555556,0,0,0.008680555555555556,111.31076388888887,0)" xlink:href="#bb"/></g><g id="Q"><use transform="matrix(0.010850694444444444,0,0,0.010850694444444444,0,0)" xlink:href="#al"/><use transform="matrix(0.010850694444444444,0,0,0.010850694444444444,16.23263888888889,0)" xlink:href="#ab"/><use transform="matrix(0.010850694444444444,0,0,0.010850694444444444,28.7109375,0)" xlink:href="#am"/><use transform="matrix(0.010850694444444444,0,0,0.010850694444444444,42.31770833333333,0)" xlink:href="#af"/><use transform="matrix(0.010850694444444444,0,0,0.010850694444444444,47.69965277777778,0)" xlink:href="#W"/><use transform="matrix(0.010850694444444444,0,0,0.010850694444444444,55.078124999999986,0)" xlink:href="#ab"/><use transform="matrix(0.010850694444444444,0,0,0.010850694444444444,67.5564236111111,0)" xlink:href="#ad"/><use transform="matrix(0.010850694444444444,0,0,0.010850694444444444,72.93836805555554,0)" xlink:href="#ay"/><use transform="matrix(0.010850694444444444,0,0,0.010850694444444444,85.50347222222221,0)" xlink:href="#X"/><use transform="matrix(0.010850694444444444,0,0,0.010850694444444444,98.45920138888889,0)" xlink:href="#W"/><use transform="matrix(0.010850694444444444,0,0,0.010850694444444444,105.18663194444441,0)" xlink:href="#W"/><use transform="matrix(0.010850694444444444,0,0,0.010850694444444444,112.23958333333331,0)" xlink:href="#X"/><use transform="matrix(0.010850694444444444,0,0,0.010850694444444444,125.1953125,0)" xlink:href="#Z"/></g><path fill="#333" d="M49 0l509-1490h400L1480 0h-339l-115-346H497L386 0H49zm524-585h374c-75-213-124-402-192-666-66 268-110 453-182 666" id="bc"/><path fill="#333" d="M115 0v-183l604-853c49-68 106-137 165-205-253 8-513 2-772 4v-253h1133v184L652-468c-53 73-113 147-176 220 253-10 513-3 772-5V0H115" id="bd"/><g id="R"><use transform="matrix(0.008680555555555556,0,0,0.008680555555555556,0,0)" xlink:href="#bc"/><use transform="matrix(0.008680555555555556,0,0,0.008680555555555556,12.673611111111112,0)" xlink:href="#at"/><use transform="matrix(0.008680555555555556,0,0,0.008680555555555556,20.989583333333336,0)" xlink:href="#bd"/></g><g id="S"><use transform="matrix(0.010850694444444444,0,0,0.010850694444444444,0,0)" xlink:href="#aC"/><use transform="matrix(0.010850694444444444,0,0,0.010850694444444444,13.0859375,0)" xlink:href="#Z"/><use transform="matrix(0.010850694444444444,0,0,0.010850694444444444,21.451822916666664,0)" xlink:href="#ab"/><use transform="matrix(0.010850694444444444,0,0,0.010850694444444444,33.93012152777777,0)" xlink:href="#af"/><use transform="matrix(0.010850694444444444,0,0,0.010850694444444444,39.312065972222214,0)" xlink:href="#ad"/><use transform="matrix(0.010850694444444444,0,0,0.010850694444444444,44.69401041666666,0)" xlink:href="#af"/><use transform="matrix(0.010850694444444444,0,0,0.010850694444444444,50.0759548611111,0)" xlink:href="#V"/><use transform="matrix(0.010850694444444444,0,0,0.010850694444444444,63.20529513888888,0)" xlink:href="#Y"/><use transform="matrix(0.010850694444444444,0,0,0.010850694444444444,76.8337673611111,0)" xlink:href="#aa"/><use transform="matrix(0.010850694444444444,0,0,0.010850694444444444,91.09157986111111,0)" xlink:href="#am"/><use transform="matrix(0.010850694444444444,0,0,0.010850694444444444,104.69835069444441,0)" xlink:href="#X"/><use transform="matrix(0.010850694444444444,0,0,0.010850694444444444,117.6540798611111,0)" xlink:href="#ax"/><use transform="matrix(0.010850694444444444,0,0,0.010850694444444444,130.3493923611111,0)" xlink:href="#af"/><use transform="matrix(0.010850694444444444,0,0,0.010850694444444444,135.73133680555554,0)" xlink:href="#ab"/><use transform="matrix(0.010850694444444444,0,0,0.010850694444444444,148.20963541666666,0)" xlink:href="#ad"/></g><g id="T"><use transform="matrix(0.010850694444444444,0,0,0.010850694444444444,0,0)" xlink:href="#aO"/><use transform="matrix(0.010850694444444444,0,0,0.010850694444444444,15.33203125,0)" xlink:href="#ax"/><use transform="matrix(0.010850694444444444,0,0,0.010850694444444444,28.02734375,0)" xlink:href="#ax"/><use transform="matrix(0.010850694444444444,0,0,0.010850694444444444,40.72265625,0)" xlink:href="#X"/><use transform="matrix(0.010850694444444444,0,0,0.010850694444444444,53.678385416666664,0)" xlink:href="#am"/><use transform="matrix(0.010850694444444444,0,0,0.010850694444444444,67.28515625,0)" xlink:href="#W"/><use transform="matrix(0.010850694444444444,0,0,0.010850694444444444,74.66362847222221,0)" xlink:href="#ab"/><use transform="matrix(0.010850694444444444,0,0,0.010850694444444444,87.14192708333333,0)" xlink:href="#aP"/><use transform="matrix(0.010850694444444444,0,0,0.010850694444444444,100.74869791666666,0)" xlink:href="#ad"/><use transform="matrix(0.010850694444444444,0,0,0.010850694444444444,106.13064236111111,0)" xlink:href="#X"/></g></defs></g></svg>